<svg width="350" height="350" viewBox="0 0 350 350" fill="none" xmlns="http://www.w3.org/2000/svg">
<path fill-rule="evenodd" clip-rule="evenodd" d="M158.5 0.633462C94.732 7.59246 41.005 46.2375 15.167 103.73C9.95897 115.318 4.46796 133.311 2.30996 145.861C-0.00303543 159.313 -0.0250288 189.993 2.26997 203.499C14.608 276.131 71.096 333.502 143.755 347.198C159.182 350.106 189.372 350.331 204 347.648C215.941 345.458 229 342.01 229 341.048C229 340.645 227.087 339.752 224.75 339.064C198.798 331.423 181.258 310.471 174.887 279.499C173.095 270.791 172.89 266.979 173.298 249.999C173.686 233.875 174.219 228.451 176.374 218.669C177.808 212.162 179.237 206.425 179.549 205.919C180.999 203.574 177.027 205.703 163.801 214.361C136.828 232.018 110.139 245.57 84.601 254.578L76.703 257.364L74.318 254.431C70.249 249.429 63.402 238.74 60.256 232.48C56.963 225.929 52 212.702 52 210.478C52 209.657 53.761 208.649 56.25 208.045C80.166 202.244 107.975 190.478 132.159 175.928C170.525 152.845 211.453 111.863 230.459 77.4995C235.514 68.3595 238.184 63.9995 238.727 63.9995C241.378 63.9995 260.711 78.8565 267.527 86.1325C274.646 93.7315 279 99.2535 279 100.682C279 101.749 272.87 111.341 270.067 114.66C267.983 117.129 250.842 146.36 247.155 153.734C236.622 174.799 227.237 200.43 222.791 220.275C220.833 229.012 220.504 233.263 220.531 249.499C220.56 267.293 220.727 268.99 223.173 276.243C227.788 289.931 234.358 297.984 244.815 302.772C266.584 312.738 299.494 297.753 322.282 267.499C333.543 252.548 343.718 227.179 347.697 204.137C349.988 190.867 349.988 159.131 347.697 145.861C344.274 126.037 334.598 100.177 324.738 84.4995C296.852 40.1605 255.226 11.8825 204 2.47646C195.691 0.950457 166.448 -0.233538 158.5 0.633462ZM159.848 57.0225C166.273 60.6505 169 65.9225 169 74.7155C169 84.2935 165.96 91.6735 156.938 103.999C145.847 119.152 127.008 132.901 108.549 139.317C100.767 142.021 98.1 142.464 89.5 142.48C80.996 142.496 78.864 142.159 75.251 140.229C62.415 133.372 61.875 115.729 73.953 97.8245C87.401 77.8905 108.088 62.5255 130.5 55.8255C139.512 53.1315 154.004 53.7225 159.848 57.0225Z" fill="#175FF1"/>
</svg>
