<svg width="188" height="32" viewBox="0 0 188 32" fill="none" xmlns="http://www.w3.org/2000/svg">
<path d="M0.592 26V2.64H4.944L11.76 22.064C11.7173 21.4453 11.664 20.7093 11.6 19.856C11.536 19.0027 11.4827 18.1173 11.44 17.2C11.4187 16.2827 11.408 15.4507 11.408 14.704V2.64H14.608V26H10.256L3.472 6.576C3.51467 7.13067 3.55733 7.824 3.6 8.656C3.664 9.488 3.70667 10.352 3.728 11.248C3.77067 12.144 3.792 12.976 3.792 13.744V26H0.592ZM26.7875 26.32C25.3582 26.32 24.0995 26.0427 23.0115 25.488C21.9448 24.912 21.1235 24.112 20.5475 23.088C19.9715 22.064 19.6835 20.8693 19.6835 19.504V14.896C19.6835 13.5093 19.9715 12.3147 20.5475 11.312C21.1235 10.288 21.9448 9.49867 23.0115 8.944C24.0995 8.368 25.3582 8.08 26.7875 8.08C28.2382 8.08 29.4968 8.368 30.5635 8.944C31.6302 9.49867 32.4515 10.288 33.0275 11.312C33.6035 12.3147 33.8915 13.5093 33.8915 14.896V18.032H23.0115V19.504C23.0115 20.8053 23.3315 21.7973 23.9715 22.48C24.6328 23.1627 25.5822 23.504 26.8195 23.504C27.8222 23.504 28.6328 23.3333 29.2515 22.992C29.8702 22.6293 30.2542 22.1067 30.4035 21.424H33.8275C33.5715 22.9173 32.8035 24.112 31.5235 25.008C30.2435 25.8827 28.6648 26.32 26.7875 26.32ZM30.5635 15.952V14.864C30.5635 13.584 30.2435 12.592 29.6035 11.888C28.9635 11.184 28.0248 10.832 26.7875 10.832C25.5715 10.832 24.6328 11.184 23.9715 11.888C23.3315 12.592 23.0115 13.5947 23.0115 14.896V15.696L30.8195 15.664L30.5635 15.952ZM37.751 26L43.927 16.912L38.135 8.4H42.103L45.207 13.264C45.3563 13.52 45.5057 13.7973 45.655 14.096C45.8043 14.3733 45.9217 14.608 46.007 14.8C46.071 14.608 46.1777 14.3733 46.327 14.096C46.4763 13.7973 46.6257 13.52 46.775 13.264L49.879 8.4H53.847L48.055 16.944L54.199 26H50.231L46.807 20.72C46.6577 20.464 46.5083 20.176 46.359 19.856C46.2097 19.536 46.0923 19.28 46.007 19.088C45.9217 19.28 45.7937 19.536 45.623 19.856C45.4737 20.176 45.3137 20.464 45.143 20.72L41.687 26H37.751ZM67.0825 26C65.4825 26 64.2345 25.5627 63.3385 24.688C62.4425 23.8133 61.9945 22.5973 61.9945 21.04V11.536H57.1305V8.4H61.9945V3.44H65.4505V8.4H72.3305V11.536H65.4505V21.04C65.4505 22.256 66.0372 22.864 67.2105 22.864H72.0105V26H67.0825ZM77.438 31.76V28.56H81.854C83.0273 28.56 83.9447 28.24 84.606 27.6C85.2673 26.96 85.598 26.0533 85.598 24.88V11.568H78.398V8.4H89.054V24.912C89.054 27.024 88.414 28.688 87.134 29.904C85.854 31.1413 84.126 31.76 81.95 31.76H77.438ZM87.166 5.36C86.4193 5.36 85.822 5.168 85.374 4.784C84.926 4.37867 84.702 3.84533 84.702 3.184C84.702 2.50133 84.926 1.968 85.374 1.584C85.822 1.17867 86.4193 0.975998 87.166 0.975998C87.9127 0.975998 88.51 1.17867 88.958 1.584C89.406 1.968 89.63 2.50133 89.63 3.184C89.63 3.84533 89.406 4.37867 88.958 4.784C88.51 5.168 87.9127 5.36 87.166 5.36ZM102.93 26.288C101.671 26.288 100.562 26.0853 99.6015 25.68C98.6628 25.2747 97.9162 24.72 97.3615 24.016C96.8282 23.2907 96.5188 22.4373 96.4335 21.456H99.8895C99.9748 22.032 100.284 22.5013 100.818 22.864C101.351 23.2053 102.055 23.376 102.93 23.376H104.306C105.351 23.376 106.14 23.1627 106.674 22.736C107.207 22.3093 107.474 21.744 107.474 21.04C107.474 20.3573 107.228 19.824 106.738 19.44C106.268 19.0347 105.564 18.768 104.626 18.64L102.354 18.288C100.476 17.9893 99.0895 17.456 98.1935 16.688C97.3188 15.8987 96.8815 14.736 96.8815 13.2C96.8815 11.5787 97.4042 10.3307 98.4495 9.456C99.5162 8.56 101.084 8.112 103.154 8.112H104.37C106.204 8.112 107.666 8.53867 108.754 9.392C109.863 10.224 110.492 11.344 110.642 12.752H107.186C107.1 12.24 106.812 11.824 106.322 11.504C105.852 11.184 105.202 11.024 104.37 11.024H103.154C102.151 11.024 101.415 11.216 100.946 11.6C100.498 11.9627 100.274 12.5067 100.274 13.232C100.274 13.872 100.476 14.352 100.882 14.672C101.287 14.992 101.916 15.216 102.77 15.344L105.106 15.728C107.09 16.0053 108.54 16.56 109.458 17.392C110.396 18.2027 110.866 19.3867 110.866 20.944C110.866 22.6293 110.311 23.9413 109.202 24.88C108.114 25.8187 106.482 26.288 104.306 26.288H102.93ZM122.117 26.288C120.858 26.288 119.749 26.0853 118.789 25.68C117.85 25.2747 117.104 24.72 116.549 24.016C116.016 23.2907 115.706 22.4373 115.621 21.456H119.077C119.162 22.032 119.472 22.5013 120.005 22.864C120.538 23.2053 121.242 23.376 122.117 23.376H123.493C124.538 23.376 125.328 23.1627 125.861 22.736C126.394 22.3093 126.661 21.744 126.661 21.04C126.661 20.3573 126.416 19.824 125.925 19.44C125.456 19.0347 124.752 18.768 123.813 18.64L121.541 18.288C119.664 17.9893 118.277 17.456 117.381 16.688C116.506 15.8987 116.069 14.736 116.069 13.2C116.069 11.5787 116.592 10.3307 117.637 9.456C118.704 8.56 120.272 8.112 122.341 8.112H123.557C125.392 8.112 126.853 8.53867 127.941 9.392C129.05 10.224 129.68 11.344 129.829 12.752H126.373C126.288 12.24 126 11.824 125.509 11.504C125.04 11.184 124.389 11.024 123.557 11.024H122.341C121.338 11.024 120.602 11.216 120.133 11.6C119.685 11.9627 119.461 12.5067 119.461 13.232C119.461 13.872 119.664 14.352 120.069 14.672C120.474 14.992 121.104 15.216 121.957 15.344L124.293 15.728C126.277 16.0053 127.728 16.56 128.645 17.392C129.584 18.2027 130.053 19.3867 130.053 20.944C130.053 22.6293 129.498 23.9413 128.389 24.88C127.301 25.8187 125.669 26.288 123.493 26.288H122.117ZM135.001 26V2.64H138.457V8.4L138.425 11.76H139.257L138.425 12.56C138.425 11.152 138.841 10.0533 139.673 9.264C140.505 8.47467 141.657 8.08 143.129 8.08C144.878 8.08 146.275 8.64533 147.321 9.776C148.366 10.8853 148.889 12.3893 148.889 14.288V26H145.433V14.672C145.433 13.52 145.123 12.624 144.505 11.984C143.886 11.344 143.043 11.024 141.977 11.024C140.889 11.024 140.025 11.3653 139.385 12.048C138.766 12.7093 138.457 13.6587 138.457 14.896V26H135.001ZM161.1 26.288C159.649 26.288 158.391 26.0107 157.324 25.456C156.257 24.9013 155.436 24.112 154.86 23.088C154.284 22.064 153.996 20.8587 153.996 19.472V14.928C153.996 13.52 154.284 12.3147 154.86 11.312C155.436 10.288 156.257 9.49867 157.324 8.944C158.391 8.38933 159.649 8.112 161.1 8.112C162.551 8.112 163.809 8.38933 164.876 8.944C165.943 9.49867 166.764 10.288 167.34 11.312C167.916 12.3147 168.204 13.52 168.204 14.928V19.472C168.204 20.8587 167.916 22.064 167.34 23.088C166.764 24.112 165.943 24.9013 164.876 25.456C163.809 26.0107 162.551 26.288 161.1 26.288ZM161.1 23.248C162.273 23.248 163.18 22.928 163.82 22.288C164.46 21.6267 164.78 20.688 164.78 19.472V14.928C164.78 13.6907 164.46 12.752 163.82 12.112C163.18 11.472 162.273 11.152 161.1 11.152C159.948 11.152 159.041 11.472 158.38 12.112C157.74 12.752 157.42 13.6907 157.42 14.928V19.472C157.42 20.688 157.74 21.6267 158.38 22.288C159.041 22.928 159.948 23.248 161.1 23.248ZM173.376 31.76V8.4H176.8V11.76H177.536L176.8 12.56C176.8 11.1733 177.226 10.0853 178.08 9.296C178.954 8.48533 180.117 8.08 181.568 8.08C183.338 8.08 184.746 8.67733 185.792 9.872C186.858 11.0453 187.392 12.656 187.392 14.704V19.664C187.392 21.0293 187.146 22.2133 186.656 23.216C186.186 24.1973 185.514 24.9653 184.64 25.52C183.786 26.0533 182.762 26.32 181.568 26.32C180.138 26.32 178.986 25.9253 178.112 25.136C177.237 24.3253 176.8 23.2267 176.8 21.84L177.536 22.64H176.736L176.832 26.736V31.76H173.376ZM180.384 23.312C181.514 23.312 182.389 22.992 183.008 22.352C183.648 21.6907 183.968 20.7413 183.968 19.504V14.896C183.968 13.6587 183.648 12.72 183.008 12.08C182.389 11.4187 181.514 11.088 180.384 11.088C179.296 11.088 178.432 11.4293 177.792 12.112C177.152 12.7733 176.832 13.7013 176.832 14.896V19.504C176.832 20.6987 177.152 21.6373 177.792 22.32C178.432 22.9813 179.296 23.312 180.384 23.312Z" fill="black"/>
</svg>
