<svg width="323" height="194" viewBox="0 0 323 194" fill="none" xmlns="http://www.w3.org/2000/svg">
<path d="M58.2793 98.7024L70.6623 45.4994C71.0903 43.6614 72.5493 41.9544 74.8183 40.6404L134.211 6.23338C139.502 3.16738 148.11 3.18338 153.365 6.26938L249.603 62.7754C251.698 64.0054 253.094 65.5754 253.603 67.2754L269.44 120.112L192.49 163.284C186.76 166.499 177.63 166.484 171.935 163.249L58.2793 98.7024Z" fill="white"/>
<path d="M57.2793 99.7009L69.6723 45.5049C70.0933 43.6629 71.5513 41.9509 73.8223 40.6329L133.412 6.04194C139.154 2.70894 148.495 2.70394 154.244 6.03194L250.489 61.7359C252.656 62.9889 254.088 64.6029 254.585 66.3509L270.44 122.111" stroke="#54463E" stroke-width="1.5"/>
<path d="M253.29 64.7872C253.29 64.7872 268.514 118.783 269.5 121.899C269.5 121.899 267.399 122.273 263.479 124.491L194.537 164.499C190.607 166.723 185.424 167.761 180.322 167.618V52.2852L253.29 64.7872Z" fill="#F6F3F1"/>
<path d="M179.822 166.164V101.164" stroke="#54463E"/>
<path d="M73.4869 41.3923L133.663 6.64935C139.164 3.47335 148.083 3.47235 153.584 6.64635L250.241 62.4094C254.785 65.0314 254.786 69.2833 250.242 71.9063L190.066 106.649C184.566 109.825 175.647 109.826 170.146 106.652L73.4889 50.8894L73.0759 50.6384C68.9489 48.0024 69.0859 43.9333 73.4869 41.3923Z" fill="#F6F3F1" stroke="#54463E"/>
</svg>
