<svg xmlns="http://www.w3.org/2000/svg" viewBox="0 0 20 20">
  <path d="M 8.723 18.482 C 9.055 18.703 9.5 18.465 9.5 18.066 L 9.5 10.783 C 9.5 10.607 9.408 10.445 9.257 10.354 L 2.757 6.454 C 2.424 6.254 2 6.494 2 6.883 L 2 12.394 C 2 13.398 2.501 14.334 3.336 14.891 Z" fill="currentColor" opacity="0.5"/>
  <path d="M 11.277 18.482 C 10.945 18.703 10.5 18.465 10.5 18.066 L 10.5 11.066 C 10.5 10.715 10.684 10.389 10.986 10.209 L 17.243 6.454 C 17.576 6.254 18 6.494 18 6.883 L 18 12.394 C 18 13.398 17.499 14.334 16.664 14.891 Z" fill="currentColor" opacity="0.5"/>
  <path d="M 9.743 9.346 C 9.901 9.441 10.099 9.441 10.257 9.346 L 16.785 5.429 C 17.109 5.235 17.109 4.765 16.785 4.571 L 11.543 1.426 C 10.593 0.856 9.407 0.856 8.457 1.426 L 3.215 4.571 C 2.891 4.765 2.891 5.235 3.215 5.429 Z" fill="currentColor"/>
</svg>