<svg xmlns="http://www.w3.org/2000/svg" viewBox="0 0 20 20">
  <path d="M 13.789 3.142 C 14.976 2.905 15.905 1.976 16.142 0.789 L 16.2 0.5 C 16.266 0.172 16.734 0.172 16.8 0.5 L 16.858 0.789 C 17.095 1.976 18.024 2.905 19.211 3.142 L 19.5 3.2 C 19.828 3.266 19.828 3.734 19.5 3.8 L 19.211 3.858 C 18.024 4.095 17.095 5.024 16.858 6.211 L 16.8 6.5 C 16.734 6.828 16.266 6.828 16.2 6.5 L 16.142 6.211 C 15.905 5.024 14.976 4.095 13.789 3.858 L 13.5 3.8 C 13.172 3.734 13.172 3.266 13.5 3.2 Z" fill="currentColor" opacity="0.5"/>
  <path d="M 4.552 9.69 C 6.135 9.373 7.373 8.135 7.69 6.552 L 8.389 3.056 C 8.522 2.388 9.478 2.388 9.611 3.056 L 10.31 6.552 C 10.627 8.135 11.865 9.373 13.448 9.69 L 16.944 10.389 C 17.612 10.522 17.612 11.478 16.944 11.611 L 13.448 12.31 C 11.865 12.627 10.627 13.865 10.31 15.448 L 9.611 18.944 C 9.478 19.612 8.522 19.612 8.389 18.944 L 7.69 15.448 C 7.373 13.865 6.135 12.627 4.552 12.31 L 1.056 11.611 C 0.388 11.478 0.388 10.522 1.056 10.389 Z" fill="currentColor"/>
</svg>