<svg xmlns="http://www.w3.org/2000/svg" viewBox="0 0 20 20">
  <path d="M 0 1 C 0 0.448 0.448 0 1 0 L 8 0 C 10.209 0 12 1.791 12 4 L 12 14 C 12 16.209 10.209 18 8 18 L 1 18 C 0.448 18 0 17.552 0 17 Z" transform="translate(4 4) rotate(90 6 9)" fill="currentColor" opacity="0.5"/>
  <path d="M 15 1 C 17.209 1 19 2.791 19 5 C 19 5.552 18.552 6 18 6 L 2 6 C 1.448 6 1 5.552 1 5 C 1 2.791 2.791 1 5 1 Z M 3.5 3.5 C 3.5 4.052 3.948 4.5 4.5 4.5 C 5.052 4.5 5.5 4.052 5.5 3.5 C 5.5 2.948 5.052 2.5 4.5 2.5 C 3.948 2.5 3.5 2.948 3.5 3.5 Z M 6.5 3.5 C 6.5 4.052 6.948 4.5 7.5 4.5 C 8.052 4.5 8.5 4.052 8.5 3.5 C 8.5 2.948 8.052 2.5 7.5 2.5 C 6.948 2.5 6.5 2.948 6.5 3.5 Z M 9.5 3.5 C 9.5 4.052 9.948 4.5 10.5 4.5 C 11.052 4.5 11.5 4.052 11.5 3.5 C 11.5 2.948 11.052 2.5 10.5 2.5 C 9.948 2.5 9.5 2.948 9.5 3.5 Z" fill="currentColor"/>
  <path d="M 1.313 1.001 C 1.49 0.611 2.045 0.611 2.223 1.001 L 3.214 3.182 C 3.365 3.513 3.123 3.889 2.759 3.889 L 0.777 3.889 C 0.413 3.889 0.171 3.513 0.321 3.182 Z" transform="translate(8.607 0.68) rotate(-135 1.768 1.945)" fill="currentColor" opacity="0.5"/>
  <path d="M 1.313 1.001 C 1.49 0.611 2.045 0.611 2.223 1.001 L 3.214 3.182 C 3.365 3.513 3.123 3.889 2.759 3.889 L 0.777 3.889 C 0.413 3.889 0.171 3.513 0.321 3.182 Z" transform="translate(11.607 0.68) rotate(-135 1.768 1.945)" fill="currentColor" opacity="0.5"/>
  <path d="M 1.313 1.001 C 1.49 0.611 2.045 0.611 2.223 1.001 L 3.214 3.182 C 3.365 3.513 3.123 3.889 2.759 3.889 L 0.777 3.889 C 0.413 3.889 0.171 3.513 0.321 3.182 Z" transform="translate(14.607 0.68) rotate(-135 1.768 1.945)" fill="currentColor" opacity="0.5"/>
</svg>