<svg xmlns="http://www.w3.org/2000/svg" viewBox="0 0 20 20">
  <path d="M 1 5 C 1 2.791 2.791 1 5 1 L 15 1 C 17.209 1 19 2.791 19 5 L 19 15 C 19 17.209 17.209 19 15 19 L 5 19 C 2.791 19 1 17.209 1 15 Z M 5 9.75 C 5 10.164 5.336 10.5 5.75 10.5 L 14.25 10.5 C 14.664 10.5 15 10.164 15 9.75 C 15 9.336 14.664 9 14.25 9 L 5.75 9 C 5.336 9 5 9.336 5 9.75 Z M 5 12.75 C 5 13.164 5.336 13.5 5.75 13.5 L 10.25 13.5 C 10.664 13.5 11 13.164 11 12.75 C 11 12.336 10.664 12 10.25 12 L 5.75 12 C 5.336 12 5 12.336 5 12.75 Z M 5 6.75 C 5 7.164 5.336 7.5 5.75 7.5 L 14.25 7.5 C 14.664 7.5 15 7.164 15 6.75 C 15 6.336 14.664 6 14.25 6 L 5.75 6 C 5.336 6 5 6.336 5 6.75 Z" fill="currentColor"/>
</svg>
