<svg xmlns="http://www.w3.org/2000/svg" viewBox="0 0 20 20" fill="none" width="20" height="20">
<path xmlns="http://www.w3.org/2000/svg" d="M 1 5 C 1 2.791 2.791 1 5 1 L 15 1 C 17.209 1 19 2.791 19 5 L 19 15 C 19 17.209 17.209 19 15 19 L 5 19 C 2.791 19 1 17.209 1 15 Z M 5 10 C 5 12.761 7.239 15 10 15 C 12.761 15 15 12.761 15 10 C 15 7.239 12.761 5 10 5 C 7.239 5 5 7.239 5 10 Z M 14 4.5 C 14 5.328 14.672 6 15.5 6 C 16.328 6 17 5.328 17 4.5 C 17 3.672 16.328 3 15.5 3 C 14.672 3 14 3.672 14 4.5 Z" fill="currentColor"/>
<path xmlns="http://www.w3.org/2000/svg" d="M 10 6 C 12.209 6 14 7.791 14 10 C 14 12.209 12.209 14 10 14 C 7.791 14 6 12.209 6 10 C 6 7.791 7.791 6 10 6 Z" fill="currentColor" opacity="0.5"/>
</svg>