<svg xmlns="http://www.w3.org/2000/svg" viewBox="0 0 20 20">
  <path d="M 6.839 1.804 C 6.933 1.336 7.343 1 7.82 1 L 12.18 1 C 12.657 1 13.067 1.336 13.161 1.804 L 14.761 9.804 C 14.885 10.423 14.411 11 13.78 11 L 6.22 11 C 5.589 11 5.115 10.423 5.239 9.804 Z" fill="currentColor"/>
  <path d="M 2 9.75 C 2 9.336 2.336 9 2.75 9 C 3.164 9 3.5 9.336 3.5 9.75 L 3.5 10.5 C 3.5 11.605 4.395 12.5 5.5 12.5 L 14.5 12.5 C 15.605 12.5 16.5 11.605 16.5 10.5 L 16.5 9.75 C 16.5 9.336 16.836 9 17.25 9 C 17.664 9 18 9.336 18 9.75 L 18 10 C 18 12.209 16.209 14 14 14 L 11 14 L 11 16.5 L 12.125 16.5 C 13.161 16.5 14 17.339 14 18.375 C 14 18.72 13.72 19 13.375 19 L 13 19 C 12.724 19 12.5 18.776 12.5 18.5 C 12.5 18.224 12.276 18 12 18 L 8 18 C 7.724 18 7.5 18.224 7.5 18.5 C 7.5 18.776 7.276 19 7 19 L 6.625 19 C 6.28 19 6 18.72 6 18.375 C 6 17.339 6.839 16.5 7.875 16.5 L 9 16.5 L 9 14 L 6 14 C 3.791 14 2 12.209 2 10 Z" fill="currentColor" opacity="0.5"/>
</svg>