<svg xmlns="http://www.w3.org/2000/svg" viewBox="0 0 20 20">
   <path d="M 7.5 7.5 C 7.5 6.119 8.619 5 10 5 L 10 5 C 11.381 5 12.5 6.119 12.5 7.5 L 12.5 16.5 C 12.5 17.881 11.381 19 10 19 L 10 19 C 8.619 19 7.5 17.881 7.5 16.5 Z" fill="currentColor" opacity="0.5"/>
      <path d="M 13.5 3.5 C 13.5 2.119 14.619 1 16 1 L 16 1 C 17.381 1 18.5 2.119 18.5 3.5 L 18.5 16.5 C 18.5 17.881 17.381 19 16 19 L 16 19 C 14.619 19 13.5 17.881 13.5 16.5 Z" fill="currentColor"/>
      <path d="M 1.5 11.5 C 1.5 10.119 2.619 9 4 9 L 4 9 C 5.381 9 6.5 10.119 6.5 11.5 L 6.5 16.5 C 6.5 17.881 5.381 19 4 19 L 4 19 C 2.619 19 1.5 17.881 1.5 16.5 Z" fill="currentColor" opacity="0.5"/>
</svg>