
<svg xmlns="http://www.w3.org/2000/svg" viewBox="0 0 20 20">
  <path d="M 10 1 C 14.971 1 19 5.029 19 10 C 19 14.971 14.971 19 10 19 C 5.029 19 1 14.971 1 10 C 1 5.029 5.029 1 10 1 Z M 4.707 9.793 C 4.317 10.183 4.317 10.817 4.707 11.207 L 8.146 14.646 C 8.342 14.842 8.658 14.842 8.854 14.646 L 15.293 8.207 C 15.683 7.817 15.683 7.183 15.293 6.793 L 15.207 6.707 C 14.817 6.317 14.183 6.317 13.793 6.707 L 8.5 12 L 6.207 9.707 C 5.817 9.317 5.183 9.317 4.793 9.707 Z" fill="currentColor"/><!-- grid.svg -->
</svg>