<svg xmlns="http://www.w3.org/2000/svg" viewBox="0 0 20 20">
  <path d="M 10 1 C 14.418 1 18 2.567 18 4.5 C 18 6.433 14.418 8 10 8 C 5.582 8 2 6.433 2 4.5 C 2 2.567 5.582 1 10 1 Z" fill="currentColor"/>
  <path d="M 18 14.5 C 18 16.433 14.418 18 10 18 C 5.582 18 2 16.433 2 14.5 L 2 11.5 C 2 13.433 5.582 15 10 15 C 14.418 15 18 13.433 18 11.5 Z" fill="currentColor" opacity="0.5"/>
  <path d="M 18 9.5 C 18 11.433 14.418 13 10 13 C 5.582 13 2 11.433 2 9.5 L 2 6.5 C 2 8.433 5.582 10 10 10 C 14.418 10 18 8.433 18 6.5 Z" fill="currentColor"/>
</svg>