<svg xmlns="http://www.w3.org/2000/svg" viewBox="0 0 20 20">
<path d="M 18 6 C 18.552 6 19 6.448 19 7 L 19 14 C 19 16.209 17.209 18 15 18 L 5 18 C 2.791 18 1 16.209 1 14 L 1 7 C 1 6.448 1.448 6 2 6 Z M 15 15 C 15 15.552 15.448 16 16 16 C 16.552 16 17 15.552 17 15 C 17 14.448 16.552 14 16 14 C 15.448 14 15 14.448 15 15 Z M 12 15 C 12 15.552 12.448 16 13 16 C 13.552 16 14 15.552 14 15 C 14 14.448 13.552 14 13 14 C 12.448 14 12 14.448 12 15 Z" fill="currentColor"/>
      <path d="M 0 3.896 C 0 2.427 0.83 1.085 2.143 0.429 L 2.143 0.429 C 2.537 0.232 3 0.518 3 0.958 L 3 17.042 C 3 17.482 2.537 17.768 2.143 17.571 L 2.143 17.571 C 0.83 16.915 0 15.573 0 14.104 Z" transform="translate(8.5 -5.5) rotate(90 1.5 9)" fill="currentColor" opacity="0.5"/>
</svg>