<svg xmlns="http://www.w3.org/2000/svg" viewBox="0 0 20 20">
  <path d="M 19 15 C 19 17.209 17.209 19 15 19 L 6 19 C 5.448 19 5 18.552 5 18 L 5 2 C 5 1.448 5.448 1 6 1 L 15 1 C 17.209 1 19 2.791 19 5 Z M 8 9.75 C 8 10.164 8.336 10.5 8.75 10.5 L 15.75 10.5 C 16.164 10.5 16.5 10.164 16.5 9.75 C 16.5 9.336 16.164 9 15.75 9 L 8.75 9 C 8.336 9 8 9.336 8 9.75 Z M 8 12.75 C 8 13.164 8.336 13.5 8.75 13.5 L 15.75 13.5 C 16.164 13.5 16.5 13.164 16.5 12.75 C 16.5 12.336 16.164 12 15.75 12 L 8.75 12 C 8.336 12 8 12.336 8 12.75 Z M 8 6.75 C 8 7.164 8.336 7.5 8.75 7.5 L 15.75 7.5 C 16.164 7.5 16.5 7.164 16.5 6.75 C 16.5 6.336 16.164 6 15.75 6 L 8.75 6 C 8.336 6 8 6.336 8 6.75 Z" fill="currentColor"/>
  <path d="M 1 4.896 C 1 3.427 1.83 2.085 3.143 1.429 L 3.143 1.429 C 3.537 1.232 4 1.518 4 1.958 L 4 18.042 C 4 18.482 3.537 18.768 3.143 18.571 L 3.143 18.571 C 1.83 17.915 1 16.573 1 15.104 Z" fill="currentColor" opacity="0.5"/>
</svg>