<svg xmlns="http://www.w3.org/2000/svg" viewBox="0 0 20 20">
  <path d="M 10 1 C 10.552 1 11 1.448 11 2 L 11 11.586 L 13.293 9.293 C 13.683 8.903 14.317 8.903 14.707 9.293 C 15.097 9.683 15.097 10.317 14.707 10.707 L 10.707 14.707 C 10.317 15.097 9.683 15.097 9.293 14.707 L 5.293 10.707 C 4.903 10.317 4.903 9.683 5.293 9.293 C 5.683 8.903 6.317 8.903 6.707 9.293 L 9 11.586 L 9 2 C 9 1.448 9.448 1 10 1 Z M 3 15 C 2.448 15 2 15.448 2 16 L 2 18 C 2 18.552 2.448 19 3 19 L 17 19 C 17.552 19 18 18.552 18 18 L 18 16 C 18 15.448 17.552 15 17 15 L 3 15 Z" fill="currentColor"/>
</svg>