<svg width="367" height="269" viewBox="0 0 367 269" fill="none" xmlns="http://www.w3.org/2000/svg">
<path d="M47.0047 40.8528L13.8394 45.8695C9.87207 46.4696 9.16019 51.8857 12.8377 53.4906L135.202 106.892C135.996 107.239 136.882 107.318 137.725 107.118L182.909 96.3967L47.0047 40.8528Z" fill="url(#paint0_linear_1_1366)" fill-opacity="0.1"/>
<path d="M47.0047 40.8528L13.8394 45.8695C9.87207 46.4696 9.16019 51.8857 12.8377 53.4906L135.202 106.892C135.996 107.239 136.882 107.318 137.725 107.118L182.909 96.3967L47.0047 40.8528Z" fill="url(#paint1_linear_1_1366)" fill-opacity="0.1"/>
<path d="M47.0047 40.8528L182.909 96.3967L314.48 66.0644L160.061 28.2471L47.0047 40.8528Z" fill="url(#paint2_linear_1_1366)" fill-opacity="0.1"/>
<path d="M47.0047 40.8528L182.909 96.3967L314.48 66.0644L160.061 28.2471L47.0047 40.8528Z" fill="url(#paint3_linear_1_1366)" fill-opacity="0.1"/>
<path d="M341.118 48.6117C344.034 46.7016 343.282 42.236 339.901 41.3865L198.345 5.81417C197.292 5.54939 196.176 5.72459 195.254 6.2995L160.061 28.2471L314.48 66.0644L341.118 48.6117Z" fill="url(#paint4_linear_1_1366)" fill-opacity="0.1"/>
<path d="M341.118 48.6117C344.034 46.7016 343.282 42.236 339.901 41.3865L198.345 5.81417C197.292 5.54939 196.176 5.72459 195.254 6.2995L160.061 28.2471L314.48 66.0644L341.118 48.6117Z" fill="url(#paint5_linear_1_1366)" fill-opacity="0.1"/>
<path d="M182.909 96.3967L236.721 109.946C237.341 110.103 237.99 110.108 238.612 109.962L351.228 83.5245C355.286 82.5718 355.363 76.8229 351.331 75.7621L314.48 66.0644L182.909 96.3967Z" fill="url(#paint6_linear_1_1366)" fill-opacity="0.1"/>
<path d="M182.909 96.3967L236.721 109.946C237.341 110.103 237.99 110.108 238.612 109.962L351.228 83.5245C355.286 82.5718 355.363 76.8229 351.331 75.7621L314.48 66.0644L182.909 96.3967Z" fill="url(#paint7_linear_1_1366)" fill-opacity="0.1"/>
<path d="M137.821 1.96516C136.95 0.936202 135.62 0.414984 134.282 0.578641L32.0609 13.0821C28.9251 13.4657 27.4506 17.1623 29.4617 19.5987L47.0047 40.8528L160.061 28.2471L137.821 1.96516Z" fill="url(#paint8_linear_1_1366)" fill-opacity="0.1"/>
<path d="M137.821 1.96516C136.95 0.936202 135.62 0.414984 134.282 0.578641L32.0609 13.0821C28.9251 13.4657 27.4506 17.1623 29.4617 19.5987L47.0047 40.8528L160.061 28.2471L137.821 1.96516Z" fill="url(#paint9_linear_1_1366)" fill-opacity="0.1"/>
<path d="M351.077 76.7295C354.006 77.5003 354.043 81.5703 351.276 82.4736L351 82.5508L238.383 108.988C237.975 109.084 237.551 109.093 237.14 109.016L236.965 108.977L187.174 96.4385L314.465 67.0938L351.077 76.7295ZM179.646 96.1426L137.495 106.146C136.941 106.277 136.363 106.248 135.829 106.064L135.602 105.976L13.2378 52.5742C10.5659 51.4081 10.9834 47.5597 13.7173 46.9111L13.9888 46.8584L46.8813 41.8828L179.646 96.1426ZM310.155 66.0342L182.993 95.3496L51.0161 41.4111L159.996 29.2607L310.155 66.0342ZM195.783 7.14844C196.431 6.74426 197.207 6.60345 197.953 6.75098L198.102 6.78418L339.658 42.3564C342.114 42.9738 342.72 46.1364 340.767 47.6357L340.571 47.7754L314.295 64.9893L162.604 27.8389L195.783 7.14844ZM134.404 1.57129C135.344 1.45639 136.28 1.79255 136.931 2.4707L137.058 2.61133L158.085 27.46L47.4321 39.7988L30.2329 18.9619C28.772 17.1917 29.7638 14.5344 31.9653 14.1084L32.1821 14.0742L134.404 1.57129Z" stroke="url(#paint10_linear_1_1366)" stroke-opacity="0.1" stroke-width="2"/>
<path d="M351.077 76.7295C354.006 77.5003 354.043 81.5703 351.276 82.4736L351 82.5508L238.383 108.988C237.975 109.084 237.551 109.093 237.14 109.016L236.965 108.977L187.174 96.4385L314.465 67.0938L351.077 76.7295ZM179.646 96.1426L137.495 106.146C136.941 106.277 136.363 106.248 135.829 106.064L135.602 105.976L13.2378 52.5742C10.5659 51.4081 10.9834 47.5597 13.7173 46.9111L13.9888 46.8584L46.8813 41.8828L179.646 96.1426ZM310.155 66.0342L182.993 95.3496L51.0161 41.4111L159.996 29.2607L310.155 66.0342ZM195.783 7.14844C196.431 6.74426 197.207 6.60345 197.953 6.75098L198.102 6.78418L339.658 42.3564C342.114 42.9738 342.72 46.1364 340.767 47.6357L340.571 47.7754L314.295 64.9893L162.604 27.8389L195.783 7.14844ZM134.404 1.57129C135.344 1.45639 136.28 1.79255 136.931 2.4707L137.058 2.61133L158.085 27.46L47.4321 39.7988L30.2329 18.9619C28.772 17.1917 29.7638 14.5344 31.9653 14.1084L32.1821 14.0742L134.404 1.57129Z" stroke="url(#paint11_linear_1_1366)" stroke-opacity="0.1" stroke-width="2"/>
<g opacity="0.3">
<path d="M165.006 29.453C162.486 28.8358 160.055 30.7438 160.055 33.3381V84.3767C160.055 86.0009 161.037 87.4638 162.54 88.0788L181.742 95.9355C182.507 96.2485 183.35 96.3168 184.156 96.131L314.501 66.0639L165.006 29.453Z" fill="url(#paint12_linear_1_1366)" fill-opacity="0.1"/>
<path d="M165.006 29.453C162.486 28.8358 160.055 30.7438 160.055 33.3381V84.3767C160.055 86.0009 161.037 87.4638 162.54 88.0788L181.742 95.9355C182.507 96.2485 183.35 96.3168 184.156 96.131L314.501 66.0639L165.006 29.453Z" fill="url(#paint13_linear_1_1366)" fill-opacity="0.1"/>
<path d="M161.055 33.338C161.055 31.4529 162.766 30.0515 164.592 30.3868L164.769 30.424L310.179 66.0343L183.932 95.1564C183.403 95.2783 182.853 95.2541 182.339 95.089L182.121 95.0099L162.919 87.1534C161.792 86.6922 161.055 85.595 161.055 84.3771V33.338Z" stroke="url(#paint14_linear_1_1366)" stroke-opacity="0.1" stroke-width="2"/>
<path d="M161.055 33.338C161.055 31.4529 162.766 30.0515 164.592 30.3868L164.769 30.424L310.179 66.0343L183.932 95.1564C183.403 95.2783 182.853 95.2541 182.339 95.089L182.121 95.0099L162.919 87.1534C161.792 86.6922 161.055 85.595 161.055 84.3771V33.338Z" stroke="url(#paint15_linear_1_1366)" stroke-opacity="0.1" stroke-width="2"/>
</g>
<path d="M47.0047 40.8528L13.8394 45.8695C9.87207 46.4696 9.16019 51.8857 12.8377 53.4906L135.202 106.892C135.996 107.239 136.882 107.318 137.725 107.118L182.909 96.3967L47.0047 40.8528Z" fill="url(#paint16_linear_1_1366)" fill-opacity="0.1"/>
<path d="M47.0047 40.8528L13.8394 45.8695C9.87207 46.4696 9.16019 51.8857 12.8377 53.4906L135.202 106.892C135.996 107.239 136.882 107.318 137.725 107.118L182.909 96.3967L47.0047 40.8528Z" fill="url(#paint17_linear_1_1366)" fill-opacity="0.1"/>
<path d="M341.118 48.6117C344.034 46.7016 343.282 42.236 339.901 41.3865L198.345 5.81417C197.292 5.54939 196.176 5.72459 195.254 6.2995L160.061 28.2471L314.48 66.0644L341.118 48.6117Z" fill="url(#paint18_linear_1_1366)" fill-opacity="0.1"/>
<path d="M341.118 48.6117C344.034 46.7016 343.282 42.236 339.901 41.3865L198.345 5.81417C197.292 5.54939 196.176 5.72459 195.254 6.2995L160.061 28.2471L314.48 66.0644L341.118 48.6117Z" fill="url(#paint19_linear_1_1366)" fill-opacity="0.1"/>
<path d="M182.909 96.3967L236.721 109.946C237.341 110.103 237.99 110.108 238.612 109.962L351.228 83.5245C355.286 82.5718 355.363 76.8229 351.331 75.7621L314.48 66.0644L182.909 96.3967Z" fill="url(#paint20_linear_1_1366)" fill-opacity="0.1"/>
<path d="M182.909 96.3967L236.721 109.946C237.341 110.103 237.99 110.108 238.612 109.962L351.228 83.5245C355.286 82.5718 355.363 76.8229 351.331 75.7621L314.48 66.0644L182.909 96.3967Z" fill="url(#paint21_linear_1_1366)" fill-opacity="0.1"/>
<path d="M137.821 1.96516C136.95 0.936201 135.62 0.414984 134.282 0.578641L32.0609 13.0821C28.9251 13.4657 27.4506 17.1623 29.4617 19.5987L47.0047 40.8528L160.061 28.2471L137.821 1.96516Z" fill="url(#paint22_linear_1_1366)" fill-opacity="0.1"/>
<path d="M137.821 1.96516C136.95 0.936201 135.62 0.414984 134.282 0.578641L32.0609 13.0821C28.9251 13.4657 27.4506 17.1623 29.4617 19.5987L47.0047 40.8528L160.061 28.2471L137.821 1.96516Z" fill="url(#paint23_linear_1_1366)" fill-opacity="0.1"/>
<path d="M351.077 76.7295C354.006 77.5003 354.043 81.5703 351.276 82.4736L351 82.5508L238.383 108.988C237.975 109.084 237.551 109.093 237.14 109.016L236.965 108.977L187.174 96.4385L314.465 67.0938L351.077 76.7295ZM179.646 96.1426L137.495 106.146C136.941 106.277 136.363 106.248 135.829 106.064L135.602 105.976L13.2378 52.5742C10.5659 51.4081 10.9834 47.5597 13.7173 46.9111L13.9888 46.8584L46.8813 41.8828L179.646 96.1426ZM195.783 7.14844C196.431 6.74426 197.207 6.60345 197.953 6.75098L198.102 6.78418L339.658 42.3564C342.114 42.9738 342.72 46.1364 340.767 47.6357L340.571 47.7754L314.295 64.9893L162.604 27.8389L195.783 7.14844ZM134.404 1.57129C135.344 1.45639 136.28 1.79255 136.931 2.4707L137.058 2.61133L158.085 27.46L47.4321 39.7988L30.2329 18.9619C28.772 17.1917 29.7638 14.5344 31.9653 14.1084L32.1821 14.0742L134.404 1.57129Z" stroke="url(#paint24_linear_1_1366)" stroke-opacity="0.1" stroke-width="2"/>
<path d="M351.077 76.7295C354.006 77.5003 354.043 81.5703 351.276 82.4736L351 82.5508L238.383 108.988C237.975 109.084 237.551 109.093 237.14 109.016L236.965 108.977L187.174 96.4385L314.465 67.0938L351.077 76.7295ZM179.646 96.1426L137.495 106.146C136.941 106.277 136.363 106.248 135.829 106.064L135.602 105.976L13.2378 52.5742C10.5659 51.4081 10.9834 47.5597 13.7173 46.9111L13.9888 46.8584L46.8813 41.8828L179.646 96.1426ZM195.783 7.14844C196.431 6.74426 197.207 6.60345 197.953 6.75098L198.102 6.78418L339.658 42.3564C342.114 42.9738 342.72 46.1364 340.767 47.6357L340.571 47.7754L314.295 64.9893L162.604 27.8389L195.783 7.14844ZM134.404 1.57129C135.344 1.45639 136.28 1.79255 136.931 2.4707L137.058 2.61133L158.085 27.46L47.4321 39.7988L30.2329 18.9619C28.772 17.1917 29.7638 14.5344 31.9653 14.1084L32.1821 14.0742L134.404 1.57129Z" stroke="url(#paint25_linear_1_1366)" stroke-opacity="0.1" stroke-width="2"/>
<path d="M182.9 96.3963L176.493 268.684L284.387 204.133C285.358 203.552 286.037 202.588 286.257 201.478L307.586 93.7698L238.616 109.988C237.993 110.135 237.343 110.13 236.722 109.973L182.9 96.3963Z" fill="url(#paint26_linear_1_1366)" fill-opacity="0.1"/>
<path d="M182.9 96.3963L176.493 268.684L284.387 204.133C285.358 203.552 286.037 202.588 286.257 201.478L307.586 93.7698L238.616 109.988C237.993 110.135 237.343 110.13 236.722 109.973L182.9 96.3963Z" fill="url(#paint27_linear_1_1366)" fill-opacity="0.05"/>
<path d="M176.493 268.684L182.9 96.3963L137.747 107.123C136.903 107.324 136.017 107.245 135.223 106.898L49.9775 69.7023L62.0216 163.158C62.1428 164.099 62.5944 164.966 63.2957 165.604L176.493 268.684Z" fill="url(#paint28_linear_1_1366)" fill-opacity="0.1"/>
<path d="M176.493 268.684L182.9 96.3963L137.747 107.123C136.903 107.324 136.017 107.245 135.223 106.898L49.9775 69.7023L62.0216 163.158C62.1428 164.099 62.5944 164.966 63.2957 165.604L176.493 268.684Z" fill="url(#paint29_linear_1_1366)" fill-opacity="0.05"/>
<path d="M285.276 201.283C285.122 202.064 284.664 202.749 284.007 203.191L283.873 203.276L177.562 266.879L183.853 97.6681L236.478 110.943C237.157 111.114 237.864 111.14 238.552 111.022L238.845 110.962L306.303 95.0988L285.276 201.283ZM134.823 107.815C135.755 108.221 136.786 108.333 137.78 108.139L137.979 108.096L181.852 97.673L175.573 266.493L63.9688 164.865C63.5086 164.446 63.1915 163.896 63.0586 163.292L63.0137 163.03L51.1953 71.3253L134.823 107.815Z" stroke="url(#paint30_linear_1_1366)" stroke-opacity="0.1" stroke-width="2"/>
<path d="M285.276 201.283C285.122 202.064 284.664 202.749 284.007 203.191L283.873 203.276L177.562 266.879L183.853 97.6681L236.478 110.943C237.157 111.114 237.864 111.14 238.552 111.022L238.845 110.962L306.303 95.0988L285.276 201.283ZM134.823 107.815C135.755 108.221 136.786 108.333 137.78 108.139L137.979 108.096L181.852 97.673L175.573 266.493L63.9688 164.865C63.5086 164.446 63.1915 163.896 63.0586 163.292L63.0137 163.03L51.1953 71.3253L134.823 107.815Z" stroke="url(#paint31_linear_1_1366)" stroke-opacity="0.1" stroke-width="2"/>
<g opacity="0.3">
<path d="M187.693 97.605C185.226 96.9826 182.812 98.792 182.717 101.335L176.494 268.684L284.387 204.133C285.358 203.552 286.038 202.588 286.258 201.478L307.587 93.7698L238.617 109.988C237.994 110.135 237.344 110.13 236.723 109.973L187.693 97.605Z" fill="url(#paint32_linear_1_1366)" fill-opacity="0.1"/>
<path d="M187.693 97.605C185.226 96.9826 182.812 98.792 182.717 101.335L176.494 268.684L284.387 204.133C285.358 203.552 286.038 202.588 286.258 201.478L307.587 93.7698L238.617 109.988C237.994 110.135 237.344 110.13 236.723 109.973L187.693 97.605Z" fill="url(#paint33_linear_1_1366)" fill-opacity="0.1"/>
<path d="M285.276 201.283C285.122 202.064 284.664 202.748 284.008 203.19L283.874 203.276L177.562 266.879L183.717 101.372C183.786 99.5246 185.487 98.1931 187.275 98.5364L187.448 98.5745L236.479 110.943C237.158 111.114 237.865 111.141 238.553 111.022L238.846 110.962L306.304 95.0989L285.276 201.283Z" stroke="url(#paint34_linear_1_1366)" stroke-opacity="0.1" stroke-width="2"/>
<path d="M285.276 201.283C285.122 202.064 284.664 202.748 284.008 203.19L283.874 203.276L177.562 266.879L183.717 101.372C183.786 99.5246 185.487 98.1931 187.275 98.5364L187.448 98.5745L236.479 110.943C237.158 111.114 237.865 111.141 238.553 111.022L238.846 110.962L306.304 95.0989L285.276 201.283Z" stroke="url(#paint35_linear_1_1366)" stroke-opacity="0.1" stroke-width="2"/>
</g>
<defs>
<linearGradient id="paint0_linear_1_1366" x1="183.5" y1="0.316406" x2="183.5" y2="110.184" gradientUnits="userSpaceOnUse">
<stop stop-color="#919191" stop-opacity="0.25"/>
<stop offset="1" stop-color="#1E1E1E"/>
</linearGradient>
<linearGradient id="paint1_linear_1_1366" x1="183.5" y1="0.316406" x2="183.5" y2="110.184" gradientUnits="userSpaceOnUse">
<stop stop-color="#1E1E1E"/>
<stop offset="1" stop-color="#919191" stop-opacity="0.25"/>
</linearGradient>
<linearGradient id="paint2_linear_1_1366" x1="183.5" y1="0.316406" x2="183.5" y2="110.184" gradientUnits="userSpaceOnUse">
<stop stop-color="#919191" stop-opacity="0.25"/>
<stop offset="1" stop-color="#1E1E1E"/>
</linearGradient>
<linearGradient id="paint3_linear_1_1366" x1="183.5" y1="0.316406" x2="183.5" y2="110.184" gradientUnits="userSpaceOnUse">
<stop stop-color="#1E1E1E"/>
<stop offset="1" stop-color="#919191" stop-opacity="0.25"/>
</linearGradient>
<linearGradient id="paint4_linear_1_1366" x1="183.5" y1="0.316406" x2="183.5" y2="110.184" gradientUnits="userSpaceOnUse">
<stop stop-color="#919191" stop-opacity="0.25"/>
<stop offset="1" stop-color="#1E1E1E"/>
</linearGradient>
<linearGradient id="paint5_linear_1_1366" x1="183.5" y1="0.316406" x2="183.5" y2="110.184" gradientUnits="userSpaceOnUse">
<stop stop-color="#1E1E1E"/>
<stop offset="1" stop-color="#919191" stop-opacity="0.25"/>
</linearGradient>
<linearGradient id="paint6_linear_1_1366" x1="183.5" y1="0.316406" x2="183.5" y2="110.184" gradientUnits="userSpaceOnUse">
<stop stop-color="#919191" stop-opacity="0.25"/>
<stop offset="1" stop-color="#1E1E1E"/>
</linearGradient>
<linearGradient id="paint7_linear_1_1366" x1="183.5" y1="0.316406" x2="183.5" y2="110.184" gradientUnits="userSpaceOnUse">
<stop stop-color="#1E1E1E"/>
<stop offset="1" stop-color="#919191" stop-opacity="0.25"/>
</linearGradient>
<linearGradient id="paint8_linear_1_1366" x1="183.5" y1="0.316406" x2="183.5" y2="110.184" gradientUnits="userSpaceOnUse">
<stop stop-color="#919191" stop-opacity="0.25"/>
<stop offset="1" stop-color="#1E1E1E"/>
</linearGradient>
<linearGradient id="paint9_linear_1_1366" x1="183.5" y1="0.316406" x2="183.5" y2="110.184" gradientUnits="userSpaceOnUse">
<stop stop-color="#1E1E1E"/>
<stop offset="1" stop-color="#919191" stop-opacity="0.25"/>
</linearGradient>
<linearGradient id="paint10_linear_1_1366" x1="183.5" y1="0.316406" x2="183.5" y2="110.184" gradientUnits="userSpaceOnUse">
<stop stop-color="#1E1E1E" stop-opacity="0.75"/>
<stop offset="1" stop-color="#919191" stop-opacity="0"/>
</linearGradient>
<linearGradient id="paint11_linear_1_1366" x1="183.5" y1="0.316406" x2="183.5" y2="110.184" gradientUnits="userSpaceOnUse">
<stop stop-color="#919191" stop-opacity="0"/>
<stop offset="1" stop-color="#1E1E1E" stop-opacity="0.75"/>
</linearGradient>
<linearGradient id="paint12_linear_1_1366" x1="162.751" y1="18.8595" x2="162.751" y2="96.4165" gradientUnits="userSpaceOnUse">
<stop stop-color="#919191" stop-opacity="0.25"/>
<stop offset="1" stop-color="#1E1E1E"/>
</linearGradient>
<linearGradient id="paint13_linear_1_1366" x1="162.751" y1="18.8595" x2="162.751" y2="96.4165" gradientUnits="userSpaceOnUse">
<stop stop-color="#1E1E1E"/>
<stop offset="1" stop-color="#919191" stop-opacity="0.25"/>
</linearGradient>
<linearGradient id="paint14_linear_1_1366" x1="162.751" y1="18.8595" x2="162.751" y2="96.4165" gradientUnits="userSpaceOnUse">
<stop stop-color="#1E1E1E" stop-opacity="0.75"/>
<stop offset="1" stop-color="#919191" stop-opacity="0"/>
</linearGradient>
<linearGradient id="paint15_linear_1_1366" x1="162.751" y1="18.8595" x2="162.751" y2="96.4165" gradientUnits="userSpaceOnUse">
<stop stop-color="#919191" stop-opacity="0"/>
<stop offset="1" stop-color="#1E1E1E" stop-opacity="0.75"/>
</linearGradient>
<linearGradient id="paint16_linear_1_1366" x1="183.5" y1="0.316406" x2="183.5" y2="110.184" gradientUnits="userSpaceOnUse">
<stop stop-color="#919191" stop-opacity="0.25"/>
<stop offset="1" stop-color="#1E1E1E"/>
</linearGradient>
<linearGradient id="paint17_linear_1_1366" x1="183.5" y1="0.316406" x2="183.5" y2="110.184" gradientUnits="userSpaceOnUse">
<stop stop-color="#1E1E1E"/>
<stop offset="1" stop-color="#919191" stop-opacity="0.25"/>
</linearGradient>
<linearGradient id="paint18_linear_1_1366" x1="183.5" y1="0.316406" x2="183.5" y2="110.184" gradientUnits="userSpaceOnUse">
<stop stop-color="#919191" stop-opacity="0.25"/>
<stop offset="1" stop-color="#1E1E1E"/>
</linearGradient>
<linearGradient id="paint19_linear_1_1366" x1="183.5" y1="0.316406" x2="183.5" y2="110.184" gradientUnits="userSpaceOnUse">
<stop stop-color="#1E1E1E"/>
<stop offset="1" stop-color="#919191" stop-opacity="0.25"/>
</linearGradient>
<linearGradient id="paint20_linear_1_1366" x1="183.5" y1="0.316406" x2="183.5" y2="110.184" gradientUnits="userSpaceOnUse">
<stop stop-color="#919191" stop-opacity="0.25"/>
<stop offset="1" stop-color="#1E1E1E"/>
</linearGradient>
<linearGradient id="paint21_linear_1_1366" x1="183.5" y1="0.316406" x2="183.5" y2="110.184" gradientUnits="userSpaceOnUse">
<stop stop-color="#1E1E1E"/>
<stop offset="1" stop-color="#919191" stop-opacity="0.25"/>
</linearGradient>
<linearGradient id="paint22_linear_1_1366" x1="183.5" y1="0.316406" x2="183.5" y2="110.184" gradientUnits="userSpaceOnUse">
<stop stop-color="#919191" stop-opacity="0.25"/>
<stop offset="1" stop-color="#1E1E1E"/>
</linearGradient>
<linearGradient id="paint23_linear_1_1366" x1="183.5" y1="0.316406" x2="183.5" y2="110.184" gradientUnits="userSpaceOnUse">
<stop stop-color="#1E1E1E"/>
<stop offset="1" stop-color="#919191" stop-opacity="0.25"/>
</linearGradient>
<linearGradient id="paint24_linear_1_1366" x1="183.5" y1="0.316406" x2="183.5" y2="110.184" gradientUnits="userSpaceOnUse">
<stop stop-color="#1E1E1E" stop-opacity="0.75"/>
<stop offset="1" stop-color="#919191" stop-opacity="0"/>
</linearGradient>
<linearGradient id="paint25_linear_1_1366" x1="183.5" y1="0.316406" x2="183.5" y2="110.184" gradientUnits="userSpaceOnUse">
<stop stop-color="#919191" stop-opacity="0"/>
<stop offset="1" stop-color="#1E1E1E"/>
</linearGradient>
<linearGradient id="paint26_linear_1_1366" x1="178.782" y1="69.7023" x2="178.782" y2="268.684" gradientUnits="userSpaceOnUse">
<stop stop-color="#919191" stop-opacity="0.25"/>
<stop offset="1" stop-color="#1E1E1E"/>
</linearGradient>
<linearGradient id="paint27_linear_1_1366" x1="178.782" y1="69.7023" x2="178.782" y2="268.684" gradientUnits="userSpaceOnUse">
<stop stop-color="#1E1E1E"/>
<stop offset="1" stop-color="#919191" stop-opacity="0.25"/>
</linearGradient>
<linearGradient id="paint28_linear_1_1366" x1="178.782" y1="69.7023" x2="178.782" y2="268.684" gradientUnits="userSpaceOnUse">
<stop stop-color="#919191" stop-opacity="0.25"/>
<stop offset="1" stop-color="#1E1E1E"/>
</linearGradient>
<linearGradient id="paint29_linear_1_1366" x1="178.782" y1="69.7023" x2="178.782" y2="268.684" gradientUnits="userSpaceOnUse">
<stop stop-color="#1E1E1E"/>
<stop offset="1" stop-color="#919191" stop-opacity="0.25"/>
</linearGradient>
<linearGradient id="paint30_linear_1_1366" x1="178.782" y1="69.7023" x2="178.782" y2="268.684" gradientUnits="userSpaceOnUse">
<stop stop-color="#1E1E1E" stop-opacity="0.75"/>
<stop offset="1" stop-color="#919191" stop-opacity="0"/>
</linearGradient>
<linearGradient id="paint31_linear_1_1366" x1="178.782" y1="69.7023" x2="178.782" y2="268.684" gradientUnits="userSpaceOnUse">
<stop stop-color="#919191" stop-opacity="0"/>
<stop offset="1" stop-color="#1E1E1E" stop-opacity="0.75"/>
</linearGradient>
<linearGradient id="paint32_linear_1_1366" x1="178.782" y1="69.7021" x2="178.782" y2="268.683" gradientUnits="userSpaceOnUse">
<stop stop-color="#919191" stop-opacity="0.25"/>
<stop offset="1" stop-color="#1E1E1E"/>
</linearGradient>
<linearGradient id="paint33_linear_1_1366" x1="178.782" y1="69.7021" x2="178.782" y2="268.683" gradientUnits="userSpaceOnUse">
<stop stop-color="#1E1E1E"/>
<stop offset="1" stop-color="#919191" stop-opacity="0.25"/>
</linearGradient>
<linearGradient id="paint34_linear_1_1366" x1="178.782" y1="69.7021" x2="178.782" y2="268.683" gradientUnits="userSpaceOnUse">
<stop stop-color="#1E1E1E" stop-opacity="0.75"/>
<stop offset="1" stop-color="#919191" stop-opacity="0"/>
</linearGradient>
<linearGradient id="paint35_linear_1_1366" x1="178.782" y1="69.7021" x2="178.782" y2="268.683" gradientUnits="userSpaceOnUse">
<stop stop-color="#919191" stop-opacity="0"/>
<stop offset="1" stop-color="#1E1E1E" stop-opacity="0.75"/>
</linearGradient>
</defs>
</svg>
