<svg width="301" height="269" viewBox="0 0 301 269" fill="none" xmlns="http://www.w3.org/2000/svg">
<path fill-rule="evenodd" clip-rule="evenodd" d="M255.711 210.411C255.707 210.414 255.708 210.414 255.704 210.416C254.213 211.53 252.731 212.63 251.245 213.712C241.05 221.139 234.167 232.738 234.314 245.351L234.524 263.273C234.559 266.285 232.145 268.756 229.133 268.791C227.908 268.805 226.714 268.407 225.743 267.66L204 250.931C195.901 244.7 185.463 242.608 175.337 243.988C167.258 245.09 158.961 245.663 150.5 245.663C67.6573 245.663 0.5 190.716 0.5 122.936C0.5 55.1552 67.6573 0.208374 150.5 0.208374C233.343 0.208374 300.5 55.1552 300.5 122.936C300.5 141.696 295.355 159.473 286.157 175.374C284.533 178.182 282.782 180.932 280.91 183.619C280.745 183.856 280.584 184.092 280.418 184.33C279.465 185.703 275.704 190.942 269.136 197.936C261.527 206.039 255.82 210.329 255.711 210.411Z" fill="url(#paint0_linear_1_1417)" fill-opacity="0.15"/>
<path d="M150.5 1.27673C232.963 1.27673 299.432 55.9361 299.432 122.936C299.432 140.916 294.655 157.989 286.074 173.357L285.232 174.839C283.824 177.273 282.32 179.663 280.724 182.006L280.033 183.008L279.541 183.72C278.67 184.975 275.338 189.621 269.548 195.922L268.357 197.204C261.744 204.247 256.586 208.381 255.352 209.34L255.07 209.556L255.069 209.557H255.068L255.064 209.56C254.32 210.116 253.578 210.669 252.837 211.217L250.616 212.848C240.356 220.323 233.317 231.974 233.244 244.754L233.246 245.364L233.455 263.286C233.483 265.708 231.542 267.693 229.12 267.722C228.197 267.732 227.295 267.452 226.543 266.922L226.395 266.813L204.652 250.084C196.549 243.85 186.217 241.655 176.164 242.808L175.192 242.93C167.162 244.025 158.913 244.594 150.5 244.594C68.0371 244.594 1.56854 189.936 1.56836 122.936C1.56836 55.9361 68.0369 1.27673 150.5 1.27673Z" stroke="url(#paint1_linear_1_1417)" stroke-opacity="0.5" stroke-width="2.13709"/>
<path fill-rule="evenodd" clip-rule="evenodd" d="M95.9574 106.576C104.995 106.576 112.321 113.902 112.321 122.939C112.321 131.977 104.995 139.303 95.9574 139.303C86.92 139.303 79.5938 131.977 79.5938 122.939C79.5938 113.902 86.92 106.576 95.9574 106.576ZM147.776 106.576C156.813 106.576 164.139 113.902 164.139 122.939C164.139 131.977 156.813 139.303 147.776 139.303C138.738 139.303 131.412 131.977 131.412 122.939C131.412 113.902 138.738 106.576 147.776 106.576ZM199.594 106.576C208.631 106.576 215.957 113.902 215.957 122.939C215.957 131.977 208.631 139.303 199.594 139.303C190.556 139.303 183.23 131.977 183.23 122.939C183.23 113.902 190.556 106.576 199.594 106.576Z" fill="url(#paint2_linear_1_1417)" fill-opacity="0.15"/>
<path d="M95.957 107.644C104.404 107.644 111.253 114.492 111.253 122.939C111.253 131.386 104.404 138.235 95.957 138.235C87.5099 138.235 80.6621 131.386 80.6621 122.939C80.6623 114.492 87.5101 107.644 95.957 107.644ZM147.775 107.644C156.223 107.644 163.07 114.492 163.07 122.939C163.07 131.386 156.223 138.235 147.775 138.235C139.328 138.235 132.48 131.386 132.48 122.939C132.481 114.492 139.328 107.644 147.775 107.644ZM199.594 107.644C208.041 107.644 214.888 114.492 214.889 122.939C214.889 131.386 208.041 138.235 199.594 138.235C191.147 138.235 184.299 131.386 184.299 122.939C184.299 114.492 191.147 107.644 199.594 107.644Z" stroke="url(#paint3_linear_1_1417)" stroke-opacity="0.5" stroke-width="2.13709"/>
<defs>
<linearGradient id="paint0_linear_1_1417" x1="45.4619" y1="31.7631" x2="289.777" y2="259.274" gradientUnits="userSpaceOnUse">
<stop stop-color="#1E1E1E"/>
<stop offset="1" stop-color="#919191" stop-opacity="0.65"/>
</linearGradient>
<linearGradient id="paint1_linear_1_1417" x1="38.9841" y1="0.20837" x2="275.324" y2="229.578" gradientUnits="userSpaceOnUse">
<stop stop-color="#1E1E1E" stop-opacity="0.75"/>
<stop offset="1" stop-color="#919191" stop-opacity="0"/>
</linearGradient>
<linearGradient id="paint2_linear_1_1417" x1="100.031" y1="110.421" x2="115.9" y2="165.544" gradientUnits="userSpaceOnUse">
<stop stop-color="#1E1E1E"/>
<stop offset="1" stop-color="#919191" stop-opacity="0.65"/>
</linearGradient>
<linearGradient id="paint3_linear_1_1417" x1="97.0865" y1="106.576" x2="111.875" y2="160.113" gradientUnits="userSpaceOnUse">
<stop stop-color="#1E1E1E" stop-opacity="0.75"/>
<stop offset="1" stop-color="#919191" stop-opacity="0"/>
</linearGradient>
</defs>
</svg>
