<svg xmlns="http://www.w3.org/2000/svg" viewBox="0 0 20 20">
  <path d="M 1 9 C 1 8.448 1.448 8 2 8 L 18 8 C 18.552 8 19 8.448 19 9 L 19 15 C 19 17.209 17.209 19 15 19 L 5 19 C 2.791 19 1 17.209 1 15 Z M 5.749 12.293 C 5.359 12.683 5.359 13.317 5.749 13.707 L 8.689 16.646 C 8.884 16.842 9.201 16.842 9.396 16.646 L 14.835 11.207 C 15.226 10.817 15.226 10.183 14.835 9.793 L 14.749 9.707 C 14.359 9.317 13.726 9.317 13.335 9.707 L 9.042 14 L 7.249 12.207 C 6.859 11.817 6.226 11.817 5.835 12.207 Z" fill="currentColor"/>
  <path d="M 10 0 C 12.209 0 14 1.791 14 4 L 16.5 4 C 17.881 4 19 5.119 19 6.5 C 19 6.776 18.776 7 18.5 7 L 1.5 7 C 1.224 7 1 6.776 1 6.5 C 1 5.119 2.119 4 3.5 4 L 6 4 C 6 1.791 7.791 0 10 0 Z M 10 1.5 C 8.619 1.5 7.5 2.619 7.5 4 L 12.5 4 C 12.5 2.619 11.381 1.5 10 1.5 Z" fill="currentColor" opacity="0.5"/>
</svg>