<svg width="241" height="241" viewBox="0 0 241 241" fill="none" xmlns="http://www.w3.org/2000/svg">
<path d="M97.7931 138.631C97.7931 151.184 94.3839 162.526 88.8982 170.715C83.4103 178.908 75.8831 183.898 67.6352 183.898C59.3873 183.898 51.8601 178.908 46.3722 170.715C40.8865 162.526 37.4773 151.184 37.4773 138.631C37.4773 126.078 40.8865 114.736 46.3722 106.547C51.8601 98.354 59.3873 93.3633 67.6352 93.3633C75.8831 93.3633 83.4103 98.354 88.8982 106.547C94.3839 114.736 97.7931 126.078 97.7931 138.631Z" fill="white" stroke="black"/>
<path d="M97.7926 138.63C97.7926 146.194 95.738 153.02 92.4423 157.94C89.1444 162.863 84.6427 165.831 79.7367 165.831C74.8308 165.831 70.3291 162.863 67.0312 157.94C63.7355 153.02 61.6809 146.194 61.6809 138.63C61.6809 131.066 63.7355 124.241 67.0312 119.321C70.3291 114.398 74.8308 111.429 79.7367 111.429C84.6427 111.429 89.1444 114.398 92.4423 119.321C95.738 124.241 97.7926 131.066 97.7926 138.63Z" fill="#2BEDE1" stroke="black"/>
<path d="M159.108 138.631C159.108 151.184 155.699 162.526 150.213 170.715C144.725 178.908 137.198 183.898 128.95 183.898C120.702 183.898 113.175 178.908 107.687 170.715C102.201 162.526 98.7922 151.184 98.7922 138.631C98.7922 126.078 102.201 114.736 107.687 106.547C113.175 98.354 120.702 93.3633 128.95 93.3633C137.198 93.3633 144.725 98.354 150.213 106.547C155.699 114.736 159.108 126.078 159.108 138.631Z" fill="white" stroke="black"/>
<path d="M159.108 138.63C159.108 146.194 157.053 153.02 153.757 157.94C150.459 162.863 145.958 165.831 141.052 165.831C136.146 165.831 131.644 162.863 128.346 157.94C125.05 153.02 122.996 146.194 122.996 138.63C122.996 131.066 125.05 124.241 128.346 119.321C131.644 114.398 136.146 111.429 141.052 111.429C145.958 111.429 150.459 114.398 153.757 119.321C157.053 124.241 159.108 131.066 159.108 138.63Z" fill="#51DA7F" stroke="black"/>
<path d="M147.007 128.996C147.007 131.571 146.307 133.88 145.201 135.53C144.093 137.184 142.617 138.131 141.053 138.131C139.489 138.131 138.012 137.184 136.904 135.53C135.799 133.88 135.099 131.571 135.099 128.996C135.099 126.421 135.799 124.112 136.904 122.461C138.012 120.807 139.489 119.861 141.053 119.861C142.617 119.861 144.093 120.807 145.201 122.461C146.307 124.112 147.007 126.421 147.007 128.996Z" fill="white" stroke="black"/>
<path d="M85.6901 128.996C85.6901 131.571 84.99 133.88 83.8843 135.53C82.7764 137.184 81.3002 138.131 79.736 138.131C78.1719 138.131 76.6956 137.184 75.5877 135.53C74.4821 133.88 73.782 131.571 73.782 128.996C73.782 126.421 74.4821 124.112 75.5877 122.461C76.6956 120.807 78.1719 119.861 79.736 119.861C81.3002 119.861 82.7764 120.807 83.8843 122.461C84.99 124.112 85.6901 126.421 85.6901 128.996Z" fill="white" stroke="black"/>
<path d="M39.3958 129.168C36.7065 112.764 40.2026 74.7911 75.7012 54.1374C120.074 28.3202 224.15 54.9441 184.618 100.124" stroke="black"/>
<path d="M203.978 69.2902L191.509 96.4358L214.983 114.911L187.838 102.442L169.363 125.916L181.832 98.7703L158.358 80.2953L185.503 92.7643L203.978 69.2902Z" fill="black"/>
</svg>
