<svg xmlns="http://www.w3.org/2000/svg" viewBox="0 0 20 20">
  <path d="M 1.707 1.707 C 1.317 1.317 1.317 0.683 1.707 0.293 C 2.097 -0.097 2.731 -0.097 3.121 0.293 L 18.293 15.465 C 18.683 15.855 18.683 16.489 18.293 16.879 C 17.903 17.269 17.269 17.269 16.879 16.879 L 14.828 14.828 C 13.582 15.582 11.891 16 10 16 C 5.582 16 2 12.418 2 10 C 2 8.109 3.418 6.418 5.172 5.172 Z M 10 7 C 11.657 7 13 8.343 13 10 C 13 10.664 12.736 11.262 12.328 11.672 L 8.328 7.672 C 8.738 7.262 9.336 7 10 7 Z M 7.672 8.328 L 11.672 12.328 C 11.262 12.736 10.664 13 10 13 C 8.343 13 7 11.657 7 10 C 7 9.336 7.262 8.738 7.672 8.328 Z" fill="currentColor"/>
</svg>