<svg xmlns="http://www.w3.org/2000/svg" viewBox="0 0 20 20">
  <path xmlns="http://www.w3.org/2000/svg" d="M 10 3 C 15.523 3 20 9 20 10 C 20 11 15.523 17 10 17 C 4.477 17 0 11 0 10 C 0 9 4.477 3 10 3 Z M 5 10 C 5 12.761 7.239 15 10 15 C 12.761 15 15 12.761 15 10 C 15 7.239 12.761 5 10 5 C 7.239 5 5 7.239 5 10 Z" fill="currentColor"/>
  <path xmlns="http://www.w3.org/2000/svg" d="M 10 6 C 12.209 6 14 7.791 14 10 C 14 12.209 12.209 14 10 14 C 7.791 14 6 12.209 6 10 C 6 7.791 7.791 6 10 6 Z" fill="currentColor" opacity="0.5"/>
</svg>