<svg width="48" height="48" viewBox="0 0 48 48" fill="none" xmlns="http://www.w3.org/2000/svg">
<path d="M38.6 17.8L45 24.2L42.2 27L35.8 20.6C35.1 21 34.35 21.3333 33.55 21.6C32.75 21.8667 31.9 22 31 22C28.5 22 26.3753 21.1253 24.626 19.376C22.8767 17.6267 22.0013 15.5013 22 13C21.9987 10.4987 22.874 8.37401 24.626 6.62601C26.378 4.87801 28.5027 4.00267 31 4.00001C33.4973 3.99734 35.6227 4.87267 37.376 6.62601C39.1293 8.37934 40.004 10.504 40 13C40 13.9 39.8667 14.75 39.6 15.55C39.3333 16.35 39 17.1 38.6 17.8ZM31 18C32.4 18 33.5833 17.5167 34.55 16.55C35.5167 15.5833 36 14.4 36 13C36 11.6 35.5167 10.4167 34.55 9.45001C33.5833 8.48334 32.4 8.00001 31 8.00001C29.6 8.00001 28.4167 8.48334 27.45 9.45001C26.4833 10.4167 26 11.6 26 13C26 14.4 26.4833 15.5833 27.45 16.55C28.4167 17.5167 29.6 18 31 18ZM8 44C6.9 44 5.95867 43.6087 5.176 42.826C4.39333 42.0433 4.00133 41.1013 4 40V12C4 10.9 4.392 9.95867 5.176 9.17601C5.96 8.39334 6.90133 8.00134 8 8.00001H19C18.6333 8.83334 18.3833 9.69201 18.25 10.576C18.1167 11.46 18.05 12.3347 18.05 13.2C18.05 16.8333 19.3333 19.8667 21.9 22.3C24.4667 24.7333 27.5167 25.95 31.05 25.95C31.6833 25.95 32.3167 25.908 32.95 25.824C33.5833 25.74 34.2333 25.5987 34.9 25.4L40 30.5V40C40 41.1 39.6087 42.042 38.826 42.826C38.0433 43.61 37.1013 44.0013 36 44H8Z" fill="black"/>
</svg>
