<svg xmlns="http://www.w3.org/2000/svg" viewBox="0 0 20 20">
  <path d="M 13 7 C 14.657 7 16 8.343 16 10 C 16 11.657 14.657 13 13 13 C 11.343 13 10 11.657 10 10 C 10 8.343 11.343 7 13 7 Z" fill="currentColor" opacity="0.5"/>
  <path d="M 10 1 L 13 1 C 14.657 1 16 2.343 16 4 L 16 4 C 16 5.657 14.657 7 13 7 L 10 7 L 10 5.5 L 13 5.5 C 13.828 5.5 14.5 4.828 14.5 4 L 14.5 4 C 14.5 3.172 13.828 2.5 13 2.5 L 10 2.5 Z" fill="currentColor"/>
  <path d="M 16 4 C 16 2.343 14.657 1 13 1 L 7 1 C 5.343 1 4 2.343 4 4 L 4 4 C 4 5.657 5.343 7 7 7 L 13 7 C 14.657 7 16 5.657 16 4 Z" fill="currentColor"/>
  <path d="M 4 16 C 4 14.343 5.343 13 7 13 L 10 13 L 10 16 C 10 17.657 8.657 19 7 19 L 7 19 C 5.343 19 4 17.657 4 16 Z" fill="currentColor" opacity="0.5"/>
  <path d="M 10 7 L 7 7 C 5.343 7 4 8.343 4 10 L 4 10 C 4 11.657 5.343 13 7 13 L 10 13 Z" fill="currentColor"/>
</svg>