<svg xmlns="http://www.w3.org/2000/svg" viewBox="0 0 20 20">
  <path d="M 10 1 C 14.971 1 19 5.029 19 10 C 19 14.971 14.971 19 10 19 C 5.029 19 1 14.971 1 10 C 1 5.029 5.029 1 10 1 Z M 8 5 C 8 6.105 8.895 7 10 7 C 11.105 7 12 6.105 12 5 C 12 3.895 11.105 3 10 3 C 8.895 3 8 3.895 8 5 Z M 8 15 C 8 16.105 8.895 17 10 17 C 11.105 17 12 16.105 12 15 C 12 13.895 11.105 13 10 13 C 8.895 13 8 13.895 8 15 Z M 3 10 C 3 11.105 3.895 12 5 12 C 6.105 12 7 11.105 7 10 C 7 8.895 6.105 8 5 8 C 3.895 8 3 8.895 3 10 Z M 13 10 C 13 11.105 13.895 12 15 12 C 16.105 12 17 11.105 17 10 C 17 8.895 16.105 8 15 8 C 13.895 8 13 8.895 13 10 Z" fill="currentColor"/>
  <path d="M 10 18 L 19.5 18 C 19.776 18 20 18.224 20 18.5 L 20 18.5 C 20 18.776 19.776 19 19.5 19 L 10 19 Z" fill="currentColor" opacity="0.5"/>
</svg>