<svg xmlns="http://www.w3.org/2000/svg" viewBox="0 0 20 20">
  <path d="M 1 2 C 1 1.448 1.448 1 2 1 L 18 1 C 18.552 1 19 1.448 19 2 L 19 4 C 19 4.552 18.552 5 18 5 L 12 5 C 11.448 5 11 5.448 11 6 L 11 8 C 11 8.552 11.448 9 12 9 L 18 9 C 18.552 9 19 9.448 19 10 L 19 12 C 19 12.552 18.552 13 18 13 L 8 13 C 7.448 13 7 13.448 7 14 L 7 16 C 7 16.552 7.448 17  weather 8 17 L 18 17 C 18.552 17 19 17.448 19 18 L 19 18 C 19 18.552 18.552 19 18 19 L 2 19 C 1.448 19 1 18.552 1 18 L 1 16 C 1 15.448 1.448 15 2 15 L 8 15 C 8.552 15 9 14.552 9 14 L 9 12 C 9 11.448 8.552 11 8 11 L 2 11 C 1.448 11 1 10.552 1 10 L 1 8 C 1 7.448 1.448 7 2 7 L 12 7 C 12.552 7 13 6.552 13 6 L 13 4 C 13 3.448 12.552 3 12 3 L 2 3 C 1.448 3 1 2.552 1 2 Z" fill="currentColor"/>
</svg>