<svg width="48" height="48" viewBox="0 0 48 48" fill="none" xmlns="http://www.w3.org/2000/svg">
<path fill-rule="evenodd" clip-rule="evenodd" d="M12 37.5H36C37.1935 37.5 38.3381 37.0259 39.182 36.182C40.0259 35.3381 40.5 34.1935 40.5 33V31.5H7.5V33C7.5 34.1935 7.97411 35.3381 8.81802 36.182C9.66193 37.0259 10.8065 37.5 12 37.5ZM7.5 27V15C7.5 13.8065 7.97411 12.6619 8.81802 11.818C9.66193 10.9741 10.8065 10.5 12 10.5H36C37.1935 10.5 38.3381 10.9741 39.182 11.818C40.0259 12.6619 40.5 13.8065 40.5 15V27H7.5ZM3 33C3 35.3869 3.94821 37.6761 5.63604 39.364C7.32387 41.0518 9.61305 42 12 42H36C38.3869 42 40.6761 41.0518 42.364 39.364C44.0518 37.6761 45 35.3869 45 33V15C45 12.6131 44.0518 10.3239 42.364 8.63604C40.6761 6.94821 38.3869 6 36 6H12C9.61305 6 7.32387 6.94821 5.63604 8.63604C3.94821 10.3239 3 12.6131 3 15V33Z" fill="black"/>
</svg>
