<svg xmlns:xlink="http://www.w3.org/1999/xlink" xmlns="http://www.w3.org/2000/svg" style="width:100%;height:100%" viewBox="0 0 24 24" preserveAspectRatio="none" width="25" height="25"><defs><svg data-name="Layer 1" viewBox="0 0 24 24" id="svg2032829059_556"><path d="M11 1H4.5A4.505 4.505 0 0 0 0 5.5V9c0 1.103.897 2 2 2h9c1.103 0 2-.897 2-2V3c0-1.103-.897-2-2-2ZM2 9V5.5C2 4.121 3.122 3 4.5 3H11v6H2Zm17.5-6H17c-1.103 0-2 .897-2 2v13c0 1.103.897 2 2 2h2.5c2.481 0 4.5-2.019 4.5-4.5v-8C24 5.019 21.981 3 19.5 3ZM22 15.5c0 1.379-1.122 2.5-2.5 2.5H17V5h2.5C20.878 5 22 6.121 22 7.5v8ZM11 13H4c-1.103 0-2 .897-2 2v3.5C2 20.981 4.019 23 6.5 23H11c1.103 0 2-.897 2-2v-6c0-1.103-.897-2-2-2Zm0 8H6.5A2.503 2.503 0 0 1 4 18.5V15h7v6Z"></path></svg></defs><use href="#svg2032829059_556"></use></svg>