<svg xmlns="http://www.w3.org/2000/svg" viewBox="0 0 20 20">
  <path d="M 1 4 C 1 2.343 2.343 1 4 1 L 16 1 C 17.657 1 19 2.343 19 4 L 19 10 C 19 11.657 17.657 13 16 13 L 4 13 C 2.343 13 1 11.657 1 10 Z" fill="currentColor"/>
  <path d="M 3 15 C 3 14.448 3.448 14 4 14 L 16 14 C 16.552 14 17 14.448 17 15 L 17 15 C 17 15.552 16.552 16 16 16 L 4 16 C 3.448 16 3 15.552 3 15 Z" fill="currentColor" opacity="0.5"/>
  <path d="M 4 18 C 4 17.448 4.448 17 5 17 L 15 17 C 15.552 17 16 17.448 16 18 L 16 18 C 16 18.552 15.552 19 15 19 L 5 19 C 4.448 19 4 18.552 4 18 Z" fill="currentColor" opacity="0.5"/>
</svg>