<svg xmlns="http://www.w3.org/2000/svg" viewBox="0 0 20 20">
  <path d="M 1.5 6.204 C 1.5 5.463 1.909 4.783 2.564 4.437 L 9.064 0.995 C 9.65 0.686 10.35 0.686 10.936 0.995 L 17.436 4.437 C 18.091 4.783 18.5 5.463 18.5 6.204 L 18.5 13.796 C 18.5 14.537 18.091 15.217 17.436 15.563 L 10.936 19.005 C 10.35 19.314 9.65 19.314 9.064 19.005 L 2.564 15.563 C 1.909 15.217 1.5 14.537 1.5 13.796 Z M 7 10 C 7 11.657 8.343 13 10 13 C 11.657 13 13 11.657 13 10 C 13 8.343 11.657 7 10 7 C 8.343 7 7 8.343 7 10 Z" fill="currentColor"/>
</svg>