<svg xmlns="http://www.w3.org/2000/svg" viewBox="0 0 20 20">
 <path d="M 2 12 C 2 11.448 2.448 11 3 11 L 8.5 11 C 9.052 11 9.5 11.448 9.5 12 L 9.5 18 C 9.5 18.552 9.052 19 8.5 19 L 5 19 C 3.343 19 2 17.657 2 16 Z" fill="currentColor" opacity="0.5"/>
      <path d="M 18 12 C 18 11.448 17.552 11 17 11 L 11.5 11 C 10.948 11 10.5 11.448 10.5 12 L 10.5 18 C 10.5 18.552 10.948 19 11.5 19 L 15 19 C 16.657 19 18 17.657 18 16 Z" fill="currentColor" opacity="0.5"/>
      <path d="M 1 7 C 1 6.448 1.448 6 2 6 L 18 6 C 18.552 6 19 6.448 19 7 L 19 9 C 19 9.552 18.552 10 18 10 L 2 10 C 1.448 10 1 9.552 1 9 Z" fill="currentColor"/>
      <path d="M 7.5 1 C 9.157 1 10.5 2.343 10.5 4 L 10.5 7 L 7.5 7 C 5.843 7 4.5 5.657 4.5 4 C 4.5 2.343 5.843 1 7.5 1 Z M 5.5 4 C 5.5 5.105 6.395 6 7.5 6 L 9.5 6 L 9.5 4 C 9.5 2.895 8.605 2 7.5 2 C 6.395 2 5.5 2.895 5.5 4 Z" fill="currentColor"/>
      <path d="M 15.5 4 C 15.5 5.657 14.157 7 12.5 7 L 9.5 7 L 9.5 4 C 9.5 2.343 10.843 1 12.5 1 C 14.157 1 15.5 2.343 15.5 4 Z M 12.5 2 C 11.395 2 10.5 2.895 10.5 4 L 10.5 6 L 12.5 6 C 13.605 6 14.5 5.105 14.5 4 C 14.5 2.895 13.605 2 12.5 2 Z" fill="currentColor"/>
</svg>
