<svg width="48" height="48" viewBox="0 0 48 48" fill="none" xmlns="http://www.w3.org/2000/svg">
<path d="M22 28.3398L17.66 23.9998L22 19.6598L19.18 16.8198L12 23.9998L19.18 31.1798L22 28.3398ZM28.82 31.1798L36 23.9998L28.82 16.8198L26 19.6598L30.34 23.9998L26 28.3398L28.82 31.1798Z" fill="black"/>
<path d="M38 6H29.64C28.8 3.68 26.6 2 24 2C21.4 2 19.2 3.68 18.36 6H10C9.72 6 9.46 6.02 9.2 6.08C8.56316 6.21396 7.96836 6.50054 7.46671 6.9151C6.96506 7.32966 6.57155 7.85981 6.32 8.46C6.12 8.92 6 9.44 6 10V38C6 38.54 6.12 39.08 6.32 39.56C6.52 40.04 6.82 40.46 7.18 40.84C7.72 41.38 8.42 41.78 9.2 41.94C9.46 41.98 9.72 42 10 42H38C40.2 42 42 40.2 42 38V10C42 7.8 40.2 6 38 6ZM24 5.5C24.82 5.5 25.5 6.18 25.5 7C25.5 7.82 24.82 8.5 24 8.5C23.18 8.5 22.5 7.82 22.5 7C22.5 6.18 23.18 5.5 24 5.5ZM38 38H10V10H38V38Z" fill="black"/>
<path opacity="0.3" d="M10 10H38V38H10V10Z" fill="black"/>
</svg>
