<svg width="48" height="48" viewBox="0 0 48 48" fill="none" xmlns="http://www.w3.org/2000/svg">
<path fill-rule="evenodd" clip-rule="evenodd" d="M20.94 16.9401C20.6591 17.2214 20.5013 17.6026 20.5013 18.0001C20.5013 18.3976 20.6591 18.7789 20.94 19.0601L24.38 22.5001H8C7.60218 22.5001 7.22064 22.6582 6.93934 22.9395C6.65804 23.2208 6.5 23.6023 6.5 24.0001C6.5 24.398 6.65804 24.7795 6.93934 25.0608C7.22064 25.3421 7.60218 25.5001 8 25.5001H24.38L20.94 28.9401C20.7926 29.0775 20.6744 29.2431 20.5924 29.4271C20.5105 29.6111 20.4664 29.8097 20.4628 30.0111C20.4593 30.2125 20.4963 30.4126 20.5718 30.5993C20.6472 30.7861 20.7595 30.9558 20.9019 31.0982C21.0444 31.2407 21.214 31.3529 21.4008 31.4284C21.5876 31.5038 21.7876 31.5409 21.989 31.5373C22.1904 31.5338 22.3891 31.4897 22.5731 31.4077C22.7571 31.3257 22.9227 31.2075 23.06 31.0601L29.06 25.0601C29.3409 24.7789 29.4987 24.3976 29.4987 24.0001C29.4987 23.6026 29.3409 23.2214 29.06 22.9401L23.06 16.9401C22.7787 16.6592 22.3975 16.5015 22 16.5015C21.6025 16.5015 21.2213 16.6592 20.94 16.9401Z" fill="black"/>
<path opacity="0.5" d="M24 40C28.2435 40 32.3131 38.3143 35.3137 35.3137C38.3143 32.3131 40 28.2435 40 24C40 19.7565 38.3143 15.6869 35.3137 12.6863C32.3131 9.68571 28.2435 8 24 8V40Z" fill="black"/>
</svg>
