<svg width="48" height="48" viewBox="0 0 48 48" fill="none" xmlns="http://www.w3.org/2000/svg">
<path opacity="0.5" d="M32 4H30C24.342 4 21.516 4 19.758 5.758C18 7.516 18 10.344 18 16V32C18 37.658 18 40.486 19.758 42.244C21.514 44 24.342 44 29.996 44H32C37.656 44 40.484 44 42.242 42.242C44 40.486 44 37.656 44 32V16C44 10.344 44 7.514 42.242 5.758C40.484 4.002 37.656 4 32 4Z" fill="black"/>
<path fill-rule="evenodd" clip-rule="evenodd" d="M31.5 24.0002C31.5 23.6024 31.342 23.2209 31.0606 22.9396C30.7793 22.6583 30.3978 22.5002 30 22.5002H8.05399L11.976 19.1402C12.1257 19.0121 12.2487 18.8557 12.338 18.68C12.4272 18.5043 12.481 18.3127 12.4962 18.1162C12.5115 17.9197 12.4878 17.7222 12.4267 17.5348C12.3656 17.3474 12.2682 17.1739 12.14 17.0242C12.0118 16.8745 11.8554 16.7515 11.6797 16.6623C11.504 16.573 11.3124 16.5192 11.116 16.504C10.9195 16.4888 10.7219 16.5124 10.5345 16.5735C10.3472 16.6346 10.1737 16.7321 10.024 16.8602L3.02399 22.8602C2.85932 23.0011 2.72711 23.1759 2.63646 23.3727C2.54581 23.5695 2.49887 23.7836 2.49887 24.0002C2.49887 24.2169 2.54581 24.431 2.63646 24.6278C2.72711 24.8246 2.85932 24.9994 3.02399 25.1402L10.024 31.1402C10.3263 31.3991 10.7191 31.5272 11.116 31.4965C11.5128 31.4657 11.8811 31.2786 12.14 30.9762C12.3988 30.6739 12.527 30.2811 12.4962 29.8843C12.4655 29.4874 12.2783 29.1191 11.976 28.8602L8.05599 25.5002H30C30.3978 25.5002 30.7793 25.3422 31.0606 25.0609C31.342 24.7796 31.5 24.3981 31.5 24.0002Z" fill="black"/>
</svg>
