<svg width="48" height="48" viewBox="0 0 48 48" fill="none" xmlns="http://www.w3.org/2000/svg">
<path d="M16 36C10.344 36 7.514 36 5.758 34.242C4 32.486 4 29.656 4 24C4 18.344 4 15.514 5.758 13.758C7.514 12 10.344 12 16 12H32C37.656 12 40.486 12 42.242 13.758C44 15.514 44 18.344 44 24C44 29.656 44 32.486 42.242 34.242C40.486 36 37.656 36 32 36H16Z" fill="black"/>
<path opacity="0.5" d="M9 35.718C10.686 36 12.924 36 16 36H32C35.076 36 37.314 36 39 35.718V36C39 38.8 39 40.2 38.454 41.27C37.9747 42.2102 37.2102 42.9747 36.27 43.454C35.2 44 33.8 44 31 44H17C14.2 44 12.8 44 11.73 43.454C10.789 42.9751 10.0238 42.2105 9.544 41.27C9 40.2 9 38.8 9 36V35.718ZM9 12.282C10.686 12 12.924 12 16 12H32C35.076 12 37.314 12 39 12.282V12C39 9.2 39 7.8 38.454 6.73C37.9751 5.78901 37.2105 5.02379 36.27 4.544C35.2 4 33.8 4 31 4H17C14.2 4 12.8 4 11.73 4.544C10.7887 5.02345 10.0234 5.78871 9.544 6.73C9 7.8 9 9.2 9 12V12.282Z" fill="black"/>
</svg>
