<?xml version="1.0" encoding="utf-8"?>
<svg xmlns="http://www.w3.org/2000/svg" width="17" height="16" viewBox="0 0 17 16" fill="none">
<path d="M8.49996 1.33325C6.84311 1.33325 5.49996 2.6764 5.49996 4.33325C5.49996 5.99011 6.84311 7.33325 8.49996 7.33325C10.1568 7.33325 11.5 5.99011 11.5 4.33325C11.5 2.6764 10.1568 1.33325 8.49996 1.33325Z" fill="#242424"/>
<path d="M3.53508 10.9256C4.47505 9.17731 6.26154 7.99992 8.50003 7.99992C9.42136 7.99992 10.2661 8.19937 11.0068 8.55599C9.35161 8.87353 8.49996 10.4797 8.49996 11.8333C8.49996 12.661 8.81427 13.4021 9.23236 13.9999H5.69687C4.9158 13.9999 4.18761 13.6526 3.73874 13.0942C3.27371 12.5157 3.1156 11.7058 3.53508 10.9256Z" fill="#242424"/>
<path fill-rule="evenodd" clip-rule="evenodd" d="M11.6111 9.83325C11.1544 9.83325 10.6988 10.0167 10.3608 10.3773C10.0196 10.7412 9.83329 11.2461 9.83329 11.8333C9.83329 12.7853 10.4985 13.5126 11.0129 13.9375C11.288 14.1648 11.5675 14.3452 11.7934 14.4707C11.9062 14.5334 12.0122 14.586 12.1036 14.6252C12.1486 14.6445 12.1976 14.6637 12.2468 14.6795L12.2488 14.6801C12.2783 14.6896 12.3797 14.7221 12.5 14.7221C12.6202 14.7221 12.7216 14.6896 12.7512 14.6801L12.7531 14.6795C12.8023 14.6637 12.8513 14.6445 12.8964 14.6252C12.9877 14.586 13.0937 14.5334 13.2065 14.4707C13.4325 14.3452 13.7119 14.1648 13.987 13.9375C14.5014 13.5126 15.1666 12.7853 15.1666 11.8333C15.1666 11.2461 14.9803 10.7412 14.6391 10.3773C14.3011 10.0167 13.8455 9.83325 13.3888 9.83325C13.0229 9.83325 12.7214 9.93058 12.5 10.0384C12.2786 9.93058 11.9771 9.83325 11.6111 9.83325ZM11.1666 11.8333C11.1666 11.5315 11.2581 11.3697 11.3335 11.2892C11.4122 11.2053 11.5122 11.1666 11.6111 11.1666C11.7525 11.1666 11.8654 11.2087 11.9446 11.2518C11.9841 11.2734 12.0126 11.2939 12.0283 11.3062C12.0336 11.3103 12.0371 11.3133 12.0389 11.3148C12.2965 11.5616 12.7034 11.5616 12.961 11.3148C12.9628 11.3133 12.9664 11.3103 12.9716 11.3062C12.9873 11.2939 13.0158 11.2734 13.0553 11.2518C13.1345 11.2087 13.2474 11.1666 13.3888 11.1666C13.4878 11.1666 13.5877 11.2053 13.6664 11.2892C13.7418 11.3697 13.8333 11.5315 13.8333 11.8333C13.8333 12.159 13.5818 12.5428 13.1379 12.9096C12.9339 13.0781 12.7237 13.2137 12.559 13.3052C12.5382 13.3168 12.5184 13.3274 12.5 13.3371C12.4815 13.3274 12.4618 13.3168 12.4409 13.3052C12.2762 13.2137 12.0661 13.0781 11.862 12.9096C11.4181 12.5428 11.1666 12.159 11.1666 11.8333Z" fill="#242424"/>
</svg>