<svg xmlns="http://www.w3.org/2000/svg" viewBox="0 0 20 20">
  <path d="M 1 5 C 1 2.791 2.791 1 5 1 L 15 1 C 17.209 1 19 2.791 19 5 L 19 15 C 19 17.209 17.209 19 15 19 L 5 19 C 2.791 19 1 17.209 1 15 Z M 13.5 6 L 13.5 6.667 C 13.5 8.508 12.008 10 10.167 10 L 9.833 10 C 7.992 10 6.5 8.508 6.5 6.667 L 6.5 6 C 6.5 5.448 6.052 5 5.5 5 C 4.948 5 4.5 5.448 4.5 6 L 4.5 6.615 C 4.5 9.589 6.911 12 9.885 12 L 10.115 12 C 13.089 12 15.5 9.589 15.5 6.615 L 15.5 6 C 15.5 5.448 15.052 5 14.5 5 C 13.948 5 13.5 5.448 13.5 6 Z" fill="currentColor"/>
</svg>