<svg xmlns="http://www.w3.org/2000/svg" viewBox="0 0 20 20">
  <path d="M 6 5 C 6 2.791 7.791 1 10 1 L 10 1 C 12.209 1 14 2.791 14 5 L 14 10 C 14 12.209 12.209 14 10 14 L 10 14 C 7.791 14 6 12.209 6 10 Z" fill="currentColor"/>
  <path d="M 17 10.077 C 17 13.587 14.387 16.488 11 16.939 L 11 19 C 11 19.552 10.552 20 10 20 C 9.448 20 9 19.552 9 19 L 9 16.939 C 5.613 16.488 3 13.587 3 10.077 L 3 8.75 C 3 8.336 3.336 8 3.75 8 C 4.164 8 4.5 8.336 4.5 8.75 L 4.5 10 C 4.5 13.038 6.962 15.5 10 15.5 C 13.038 15.5 15.5 13.038 15.5 10 L 15.5 8.75 C 15.5 8.336 15.836 8 16.25 8 C 16.664 8 17 8.336 17 8.75 Z" fill="currentColor" opacity="0.5"/>
</svg>