<svg width="48" height="48" viewBox="0 0 48 48" fill="none" xmlns="http://www.w3.org/2000/svg">
<path d="M6 11.25C6 10.6533 6.23705 10.081 6.65901 9.65901C7.08097 9.23705 7.65326 9 8.25 9H39.75C40.3467 9 40.919 9.23705 41.341 9.65901C41.7629 10.081 42 10.6533 42 11.25C42 11.8467 41.7629 12.419 41.341 12.841C40.919 13.2629 40.3467 13.5 39.75 13.5H8.25C7.65326 13.5 7.08097 13.2629 6.65901 12.841C6.23705 12.419 6 11.8467 6 11.25ZM6 23.25C6 22.6533 6.23705 22.081 6.65901 21.659C7.08097 21.2371 7.65326 21 8.25 21H39.75C40.3467 21 40.919 21.2371 41.341 21.659C41.7629 22.081 42 22.6533 42 23.25C42 23.8467 41.7629 24.419 41.341 24.841C40.919 25.2629 40.3467 25.5 39.75 25.5H8.25C7.65326 25.5 7.08097 25.2629 6.65901 24.841C6.23705 24.419 6 23.8467 6 23.25ZM6 35.25C6 34.6533 6.23705 34.081 6.65901 33.659C7.08097 33.2371 7.65326 33 8.25 33H39.75C40.3467 33 40.919 33.2371 41.341 33.659C41.7629 34.081 42 34.6533 42 35.25C42 35.8467 41.7629 36.419 41.341 36.841C40.919 37.2629 40.3467 37.5 39.75 37.5H8.25C7.65326 37.5 7.08097 37.2629 6.65901 36.841C6.23705 36.419 6 35.8467 6 35.25Z" fill="black"/>
</svg>
