<svg xmlns="http://www.w3.org/2000/svg" viewBox="0 0 20 20">
  <path d="M 3 14.25 C 3 14.664 3.336 15 3.75 15 C 4.164 15 4.5 14.664 4.5 14.25 L 4.5 4 C 4.5 2.895 5.395 2 6.5 2 L 15 2 C 17.209 2 19 3.791 19 6 L 19 14 C 19 16.209 17.209 18 15 18 L 4.714 18 C 2.663 18 1 16.337 1 14.286 L 1 6.923 C 1 5.712 1.57 4.573 2.538 3.846 C 2.729 3.704 3 3.839 3 4.077 Z M 8 9.75 C 8 10.164 8.336 10.5 8.75 10.5 L 14.75 10.5 C 15.164 10.5 15.5 10.164 15.5 9.75 C 15.5 9.336 15.164 9 14.75 9 L 8.75 9 C 8.336 9 8 9.336 8 9.75 Z M 8 6.75 C 8 7.164 8.336 7.5 8.75 7.5 L 14.75 7.5 C 15.164 7.5 15.5 7.164 15.5 6.75 C 15.5 6.336 15.164 6 14.75 6 L 8.75 6 C 8.336 6 8 6.336 8 6.75 Z M 8 12.75 C 8 13.164 8.336 13.5 8.75 13.5 L 14.75 13.5 C 15.164 13.5 15.5 13.164 15.5 12.75 C 15.5 12.336 15.164 12 14.75 12 L 8.75 12 C 8.336 12 8 12.336 8 12.75 Z" fill="currentColor"/>
</svg>