<svg xmlns="http://www.w3.org/2000/svg" viewBox="0 0 20 20">
  <path d="M 9.305 0.673 C 9.692 0.298 10.308 0.298 10.695 0.673 L 12.121 2.052 C 12.342 2.266 12.651 2.366 12.956 2.323 L 14.92 2.045 C 15.454 1.97 15.952 2.331 16.045 2.863 L 16.388 4.816 C 16.441 5.12 16.631 5.382 16.904 5.527 L 18.656 6.456 C 19.132 6.709 19.323 7.294 19.086 7.779 L 18.215 9.561 C 18.079 9.838 18.079 10.162 18.215 10.439 L 19.086 12.221 C 19.323 12.706 19.132 13.291 18.656 13.544 L 16.904 14.473 C 16.631 14.618 16.441 14.88 16.388 15.184 L 16.045 17.137 C 15.952 17.669 15.454 18.03 14.92 17.955 L 12.956 17.677 C 12.651 17.634 12.342 17.734 12.121 17.948 L 10.695 19.327 C 10.308 19.702 9.692 19.702 9.305 19.327 L 7.879 17.948 C 7.658 17.734 7.349 17.634 7.044 17.677 L 5.08 17.955 C 4.546 18.03 4.048 17.669 3.955 17.137 L 3.612 15.184 C 3.559 14.88 3.369 14.618 3.096 14.473 L 1.344 13.544 C 0.868 13.291 0.677 12.706 0.914 12.221 L 1.785 10.439 C 1.921 10.162 1.921 9.838 1.785 9.561 L 0.914 7.779 C 0.677 7.294 0.868 6.709 1.344 6.456 L 3.096 5.527 C 3.369 5.382 3.559 5.12 3.612 4.816 L 3.955 2.863 C 4.048 2.331 4.546 1.97 5.08 2.045 L 7.044 2.323 C 7.349 2.366 7.658 2.266 7.879 2.052 Z M 5.707 9.293 C 5.317 9.683 5.317 10.317 5.707 10.707 L 9 14 L 14.793 8.207 C 15.183 7.817 15.183 7.183 14.793 6.793 L 14.707 6.707 C 14.317 6.317 13.683 6.317 13.293 6.707 L 9 11 L 7.207 9.207 C 6.817 8.817 6.183 8.817 5.793 9.207 Z" fill="currentColor"/>
</svg>