<svg xmlns="http://www.w3.org/2000/svg" viewBox="0 0 20 20">
  <path d="M 1 5 C 1 2.791 2.791 1 5 1 L 15 1 C 17.209 1 19 2.791 19 5 L 19 15 C 19 17.209 17.209 19 15 19 L 5 19 C 2.791 19 1 17.209 1 15 Z M 12.5 12.5 L 11.5 12.5 C 10.948 12.5 10.5 12.948 10.5 13.5 C 10.5 14.052 10.948 14.5 11.5 14.5 L 12.5 14.5 L 12.5 15.5 C 12.5 16.052 12.948 16.5 13.5 16.5 C 14.052 16.5 14.5 16.052 14.5 15.5 L 14.5 14.5 L 15.5 14.5 C 16.052 14.5 16.5 14.052 16.5 13.5 C 16.5 12.948 16.052 12.5 15.5 12.5 L 14.5 12.5 L 14.5 11.5 C 14.5 10.948 14.052 10.5 13.5 10.5 C 12.948 10.5 12.5 10.948 12.5 11.5 Z M 11 6.5 C 11 7.881 12.119 9 13.5 9 C 14.881 9 16 7.881 16 6.5 C 16 5.119 14.881 4 13.5 4 C 12.119 4 11 5.119 11 6.5 Z M 3.785 8.095 C 3.549 8.495 3.837 9 4.301 9 L 8.699 9 C 9.163 9 9.451 8.495 9.215 8.095 L 7.017 4.374 C 6.784 3.981 6.216 3.981 5.983 4.374 Z M 4.03 12.97 C 3.737 13.263 3.737 13.737 4.03 14.03 L 5.97 15.97 C 6.263 16.263 6.737 16.263 7.03 15.97 L 8.97 14.03 C 9.263 13.737 9.263 13.263 8.97 12.97 L 7.03 11.03 C 6.737 10.737 6.263 10.737 5.97 11.03 Z" fill="currentColor"/>
</svg>