<svg width="48" height="48" viewBox="0 0 48 48" fill="none" xmlns="http://www.w3.org/2000/svg">
<path opacity="0.5" d="M35.934 13.1162L32.274 9.45622C29.182 6.36622 27.638 4.82022 25.632 4.24622C23.626 3.67022 21.496 4.16222 17.238 5.14622L14.782 5.71222C11.198 6.53822 9.406 6.95222 8.178 8.17822C6.95 9.40422 6.54 11.2002 5.712 14.7822L5.144 17.2382C4.162 21.4982 3.67 23.6262 4.244 25.6322C4.82 27.6382 6.366 29.1822 9.456 32.2722L13.116 35.9322C18.496 41.3142 21.184 44.0002 24.524 44.0002C27.866 44.0002 30.554 41.3122 35.932 35.9342C41.312 30.5542 44 27.8662 44 24.5242C44 21.1842 41.312 18.4942 35.934 13.1162Z" fill="black"/>
<path d="M22.294 28.6561C20.948 27.3121 20.96 25.3801 21.764 23.8501C21.5644 23.5619 21.4721 23.2129 21.5031 22.8638C21.5341 22.5146 21.6864 22.1873 21.9335 21.9387C22.1807 21.6901 22.5071 21.5359 22.8561 21.503C23.2051 21.47 23.5546 21.5603 23.844 21.7581C24.524 21.3981 25.27 21.2061 26.014 21.2141C26.4118 21.2179 26.7919 21.3794 27.0705 21.6634C27.3492 21.9473 27.5037 22.3303 27.5 22.7281C27.4963 23.126 27.3347 23.506 27.0507 23.7847C26.7668 24.0634 26.3838 24.2179 25.986 24.2141C25.5229 24.2312 25.0852 24.4303 24.768 24.7681C23.994 25.5421 24.198 26.3181 24.414 26.5361C24.634 26.7541 25.408 26.9561 26.182 26.1821C27.75 24.6141 30.458 24.0941 32.194 25.8281C33.54 27.1741 33.528 29.1061 32.722 30.6361C32.9202 30.9244 33.0115 31.2729 32.98 31.6214C32.9484 31.9698 32.7961 32.2963 32.5493 32.5443C32.3025 32.7923 31.9767 32.9462 31.6284 32.9794C31.2801 33.0126 30.9312 32.923 30.642 32.7261C29.7445 33.2186 28.7034 33.3827 27.698 33.1901C27.5049 33.1505 27.3216 33.0732 27.1584 32.9627C26.9952 32.8522 26.8554 32.7106 26.747 32.546C26.6385 32.3815 26.5635 32.1972 26.5263 32.0037C26.4891 31.8101 26.4903 31.6112 26.53 31.4181C26.5696 31.2251 26.6469 31.0418 26.7574 30.8786C26.868 30.7154 27.0095 30.5756 27.1741 30.4671C27.3386 30.3587 27.5229 30.2837 27.7164 30.2465C27.91 30.2092 28.1089 30.2105 28.302 30.2501C28.656 30.3241 29.228 30.2081 29.718 29.7181C30.494 28.9421 30.29 28.1681 30.072 27.9501C29.854 27.7321 29.08 27.5301 28.304 28.3041C26.736 29.8721 24.028 30.3921 22.294 28.6561ZM20.042 20.5861C20.424 20.2172 20.7287 19.7758 20.9384 19.2878C21.148 18.7997 21.2584 18.2749 21.263 17.7437C21.2676 17.2126 21.1664 16.6859 20.9653 16.1943C20.7641 15.7027 20.4671 15.2561 20.0915 14.8806C19.716 14.505 19.2694 14.208 18.7778 14.0069C18.2862 13.8057 17.7595 13.7045 17.2284 13.7091C16.6972 13.7138 16.1724 13.8241 15.6844 14.0337C15.1963 14.2434 14.755 14.5481 14.386 14.9301C13.6573 15.6845 13.2542 16.695 13.2633 17.7437C13.2724 18.7925 13.6931 19.7958 14.4347 20.5374C15.1763 21.279 16.1796 21.6997 17.2284 21.7088C18.2772 21.7179 19.2876 21.3148 20.042 20.5861Z" fill="black"/>
</svg>
