<svg width="48" height="48" viewBox="0 0 48 48" fill="none" xmlns="http://www.w3.org/2000/svg">
<path d="M40.2797 26.7047L40.2891 26.7094C40.4344 25.8234 40.5047 24.9188 40.5047 24.0234C40.5047 23.2219 40.4438 22.4156 40.3313 21.6281C40.4438 22.4109 40.5 23.2031 40.5 23.9953C40.5 24.9047 40.425 25.8141 40.2797 26.7047ZM4.64062 18.6609C4.61718 18.6422 4.59843 18.6234 4.575 18.6C4.60781 18.6328 4.64062 18.6656 4.67812 18.6984L7.74843 21.3187V21.3141L4.64062 18.6609ZM29.7937 8.53594H29.7984L29.0719 4.60781C29.0625 4.56094 29.0531 4.51875 29.0391 4.47656C29.0438 4.5 29.0531 4.52812 29.0578 4.55156L29.7937 8.53594ZM32.325 34.1531L33.7969 32.9437L38.1469 34.4859C38.9438 33.4125 39.6141 32.2594 40.1438 31.0359L36.6422 28.0406L36.9516 26.1609C37.0688 25.4531 37.1297 24.7266 37.1297 24C37.1297 23.2734 37.0688 22.5469 36.9516 21.8391L36.6469 19.9688L40.1484 16.9734C39.6141 15.7547 38.9484 14.5969 38.1516 13.5234L33.8016 15.0656L32.3297 13.8563C31.2094 12.9375 29.9578 12.2156 28.6125 11.7094L26.8266 11.0391L25.9875 6.49219C24.6636 6.34219 23.327 6.34219 22.0031 6.49219L21.1641 11.0484L19.3875 11.7188C18.0516 12.225 16.8094 12.9469 15.6984 13.8609L14.2266 15.075L9.84844 13.5187C9.05156 14.5922 8.38125 15.7453 7.85156 16.9688L11.3906 19.9922L11.0859 21.8672C10.9687 22.5656 10.9125 23.2828 10.9125 24C10.9125 24.7125 10.9734 25.4344 11.0859 26.1328L11.3906 28.0078L7.85156 31.0312C8.38593 32.25 9.05156 33.4078 9.84844 34.4812L14.2266 32.925L15.6984 34.1391C16.8094 35.0531 18.0516 35.775 19.3875 36.2812L21.1594 36.9609L21.9984 41.5172C23.3203 41.6672 24.6656 41.6672 25.9828 41.5172L26.8219 36.9703L28.6078 36.3C29.9578 35.7938 31.2047 35.0719 32.325 34.1531ZM24.0234 31.7953C22.5937 31.7953 21.2484 31.4297 20.0719 30.7875C17.4984 29.3906 15.75 26.6672 15.75 23.5312C15.75 18.975 19.4437 15.2812 24 15.2812C27.1359 15.2812 29.8594 17.0297 31.2562 19.6031C31.8984 20.775 32.2641 22.1203 32.2641 23.5547C32.2641 28.1062 28.575 31.7953 24.0234 31.7953ZM9.7125 38.1C9.45468 38.1891 9.1875 38.2078 8.93437 38.1562C9.20156 38.2125 9.48281 38.2031 9.75469 38.1094L13.5703 36.75C13.5656 36.7453 13.5562 36.7406 13.5516 36.7359L9.7125 38.1ZM43.35 18.6609L40.2797 21.2859C40.2797 21.2953 40.2844 21.3094 40.2844 21.3187L43.35 18.6984C43.6828 18.4125 43.8703 18 43.875 17.5734C43.8609 17.9859 43.6734 18.3844 43.35 18.6609Z" fill="black" fill-opacity="0.15"/>
<path d="M43.8656 30.3096C43.8891 30.5299 43.8656 30.7549 43.7859 30.9705L43.7437 31.0924C42.8964 33.4538 41.6309 35.6434 40.0078 37.5564L39.9234 37.6549C39.7268 37.8873 39.4641 38.0544 39.1702 38.1339C38.8763 38.2135 38.5652 38.2017 38.2781 38.1002L34.4672 36.7455C33.0691 37.8973 31.4899 38.8097 29.7937 39.4455L29.0578 43.4299C29.0023 43.7297 28.8569 44.0055 28.6408 44.2207C28.4248 44.4359 28.1484 44.5802 27.8484 44.6346L27.7219 44.658C26.4968 44.8795 25.2543 44.9909 24.0094 44.9908H24.0234C25.275 44.9908 26.5266 44.8783 27.7453 44.658L27.8719 44.6346C28.1719 44.5802 28.4483 44.4359 28.6643 44.2207C28.8803 44.0055 29.0257 43.7297 29.0812 43.4299L29.8172 39.4502C31.5141 38.8127 33.0797 37.908 34.4859 36.7549L38.2922 38.1096C38.5792 38.2111 38.8903 38.2229 39.1842 38.1433C39.4781 38.0638 39.7408 37.8967 39.9375 37.6643L40.0219 37.5658C41.6531 35.6393 42.9047 33.4689 43.7531 31.1111L43.7953 30.9893C43.8703 30.7689 43.8937 30.5346 43.8656 30.3096Z" fill="black" fill-opacity="0.15"/>
<path d="M32.25 23.5312C32.25 22.1109 31.8891 20.7703 31.2562 19.6031C29.8594 17.0297 27.1359 15.2812 24 15.2812C19.4438 15.2812 15.75 18.975 15.75 23.5312C15.75 26.6672 17.4984 29.3906 20.0719 30.7875C21.2391 31.4203 22.575 31.7812 24 31.7812C28.5562 31.7812 32.25 28.0875 32.25 23.5312ZM18.75 23.5312C18.75 22.1297 19.2984 20.8125 20.2875 19.8187C21.2812 18.825 22.5984 18.2812 24 18.2812C25.4016 18.2812 26.7188 18.825 27.7125 19.8187C28.2008 20.3057 28.5881 20.8844 28.8519 21.5215C29.1158 22.1586 29.2511 22.8416 29.25 23.5312C29.25 24.9328 28.7016 26.25 27.7125 27.2438C27.2256 27.7321 26.6469 28.1193 26.0098 28.3832C25.3726 28.647 24.6896 28.7823 24 28.7812C22.5984 28.7812 21.2812 28.2328 20.2875 27.2438C19.7992 26.7568 19.4119 26.1781 19.1481 25.541C18.8842 24.9039 18.7489 24.2209 18.75 23.5312Z" fill="black"/>
<path d="M27.8484 44.6346C28.1485 44.5802 28.4248 44.4359 28.6408 44.2207C28.8569 44.0055 29.0023 43.7297 29.0578 43.4299L29.7937 39.4455C31.4899 38.8097 33.0691 37.8973 34.4672 36.7455L38.2781 38.1002C38.5652 38.2017 38.8763 38.2135 39.1702 38.1339C39.4641 38.0544 39.7268 37.8873 39.9234 37.6549L40.0078 37.5564C41.6391 35.6299 42.8953 33.4549 43.7438 31.0924L43.7859 30.9705C43.8656 30.7549 43.8891 30.5299 43.8656 30.3096C43.8234 29.9393 43.6453 29.5877 43.35 29.3299L40.2891 26.7096L40.2797 26.7049C40.425 25.8143 40.5 24.9049 40.5 23.9955C40.5 23.2033 40.4438 22.4064 40.3313 21.6283C40.3172 21.5252 40.2984 21.4221 40.2844 21.3189C40.2844 21.3096 40.2797 21.2955 40.2797 21.2861L43.35 18.6611C43.6734 18.3846 43.8609 17.9861 43.875 17.5736C43.8797 17.3861 43.8516 17.1939 43.7859 17.0111L43.7438 16.8893C42.8985 14.5269 41.6328 12.3369 40.0078 10.4252L39.9234 10.3268C39.7263 10.095 39.4636 9.92835 39.1699 9.84886C38.8762 9.76936 38.5652 9.78072 38.2781 9.88145L34.4672 11.2361C33.0609 10.083 31.4953 9.17363 29.7984 8.53613H29.7937L29.0578 4.55176C29.0531 4.52832 29.0484 4.5002 29.0391 4.47676C28.9714 4.19335 28.8228 3.93571 28.6115 3.73515C28.4001 3.5346 28.135 3.39978 27.8484 3.34707L27.7219 3.32363C25.2797 2.88301 22.7109 2.88301 20.2687 3.32363L20.1422 3.34707C19.8422 3.40143 19.5658 3.54579 19.3498 3.76097C19.1338 3.97614 18.9883 4.25196 18.9328 4.55176L18.1922 8.55488C16.5089 9.19255 14.9413 10.1014 13.5516 11.2455L9.7125 9.88145C9.42546 9.77992 9.11433 9.76815 8.82045 9.84769C8.52656 9.92724 8.26384 10.0943 8.06719 10.3268L7.98281 10.4252C6.35973 12.3383 5.09424 14.5279 4.24688 16.8893L4.20469 17.0111C4.10701 17.2836 4.08999 17.5784 4.15567 17.8602C4.22135 18.1421 4.36695 18.399 4.575 18.6002C4.59844 18.6189 4.61719 18.6424 4.64063 18.6611L7.74844 21.3143V21.3189C7.60313 22.2002 7.53281 23.0955 7.53281 23.9908C7.53281 24.8908 7.60313 25.7908 7.74844 26.6674L4.64063 29.3205C4.40904 29.5188 4.2433 29.7828 4.16543 30.0775C4.08755 30.3723 4.10125 30.6837 4.20469 30.9705L4.24688 31.0924C5.09531 33.4549 6.35156 35.6346 7.98281 37.5564L8.06719 37.6549C8.29688 37.9221 8.60156 38.0955 8.93438 38.1564C9.1875 38.2033 9.45469 38.1893 9.7125 38.1002L13.5516 36.7361C13.5563 36.7408 13.5656 36.7455 13.5703 36.7502C14.9625 37.8893 16.5141 38.7939 18.1922 39.4268L18.9328 43.4299C18.9883 43.7297 19.1338 44.0055 19.3498 44.2207C19.5658 44.4359 19.8422 44.5802 20.1422 44.6346L20.2687 44.658C21.4922 44.8783 22.7437 44.9908 23.9953 44.9908H24.0094C25.2563 44.9908 26.5078 44.8783 27.7219 44.658L27.8484 44.6346ZM25.9828 41.5174C24.6589 41.6674 23.3223 41.6674 21.9984 41.5174L21.1594 36.9611L19.3875 36.2814C18.0516 35.7752 16.8094 35.0533 15.6984 34.1393L14.2266 32.9252L9.84844 34.4814C9.05156 33.408 8.38594 32.2502 7.85156 31.0314L11.3906 28.008L11.0859 26.133C10.9734 25.4346 10.9125 24.7127 10.9125 24.0002C10.9125 23.283 10.9688 22.5658 11.0859 21.8674L11.3906 19.9924L7.85156 16.9689C8.38125 15.7455 9.05156 14.5924 9.84844 13.5189L14.2266 15.0752L15.6984 13.8611C16.8094 12.9471 18.0516 12.2252 19.3875 11.7189L21.1641 11.0486L22.0031 6.49238C23.3203 6.34238 24.6656 6.34238 25.9875 6.49238L26.8266 11.0393L28.6125 11.7096C29.9578 12.2158 31.2094 12.9377 32.3297 13.8564L33.8016 15.0658L38.1516 13.5236C38.9484 14.5971 39.6141 15.7549 40.1484 16.9736L36.6469 19.9689L36.9516 21.8393C37.0687 22.5471 37.1297 23.2736 37.1297 24.0002C37.1297 24.7268 37.0687 25.4533 36.9516 26.1611L36.6422 28.0408L40.1438 31.0361C39.6129 32.2591 38.9429 33.4167 38.1469 34.4861L33.7969 32.9439L32.325 34.1533C31.2047 35.0721 29.9578 35.7939 28.6078 36.3002L26.8219 36.9705L25.9828 41.5174Z" fill="black"/>
</svg>
