<svg xmlns="http://www.w3.org/2000/svg" viewBox="0 0 20 20">
  <path d="M 1.207 16.207 C 0.817 15.817 0.817 15.183 1.207 14.793 L 2.646 13.354 C 2.842 13.158 3.158 13.158 3.354 13.354 L 4.646 14.646 C 4.842 14.842 5.158 14.842 5.354 14.646 L 5.646 14.354 C 5.842 14.158 5.842 13.842 5.646 13.646 L 4.354 12.354 C 4.158 12.158 4.158 11.842 4.354 11.646 L 5.646 10.354 C 5.842 10.158 6.158 10.158 6.354 10.354 L 7.646 11.646 C 7.842 11.842 8.158 11.842 8.354 11.646 L 8.646 11.354 C 8.842 11.158 8.842 10.842 8.646 10.646 L 7.354 9.354 C 7.158 9.158 7.158 8.842 7.354 8.646 L 8.646 7.354 C 8.842 7.158 9.158 7.158 9.354 7.354 L 10.646 8.646 C 10.842 8.842 11.158 8.842 11.354 8.646 L 11.646 8.354 C 11.842 8.158 11.842 7.842 11.646 7.646 L 10.354 6.354 C 10.158 6.158 10.158 5.842 10.354 5.646 L 11.646 4.354 C 11.842 4.158 12.158 4.158 12.354 4.354 L 13.646 5.646 C 13.842 5.842 14.158 5.842 14.354 5.646 L 14.646 5.354 C 14.842 5.158 14.842 4.842 14.646 4.646 L 13.354 3.354 C 13.158 3.158 13.158 2.842 13.354 2.646 L 14.793 1.207 C 15.183 0.817 15.817 0.817 16.207 1.207 L 18.793 3.793 C 19.183 4.183 19.183 4.817 18.793 5.207 L 5.207 18.793 C 4.817 19.183 4.183 19.183 3.793 18.793 Z" fill="currentColor"/>
  <path d="M 3.793 1.207 C 4.183 0.817 4.817 0.817 5.207 1.207 L 8.293 4.293 C 8.683 4.683 8.683 5.317 8.293 5.707 L 5.707 8.293 C 5.317 8.683 4.683 8.683 4.293 8.293 L 1.207 5.207 C 0.817 4.817 0.817 4.183 1.207 3.793 Z" fill="currentColor" opacity="0.5"/>
  <path d="M 19 18 C 19 18.552 18.552 19 18 19 L 15.414 19 C 15.149 19 14.895 18.895 14.707 18.707 L 11.707 15.707 C 11.317 15.317 11.317 14.683 11.707 14.293 L 14.293 11.707 C 14.683 11.317 15.317 11.317 15.707 11.707 L 18.707 14.707 C 18.895 14.895 19 15.149 19 15.414 Z" fill="currentColor" opacity="0.5"/>
</svg>