<svg xmlns="http://www.w3.org/2000/svg" viewBox="0 0 20 20">
  <path d="M 10 6 C 11.657 6 13 7.343 13 9 C 13 10.657 11.657 12 10 12 C 8.343 12 7 10.657 7 9 C 7 7.343 8.343 6 10 6 Z M 17.657 8.343 C 18.047 8.733 18.047 9.367 17.657 9.757 L 16.243 11.171 C 15.853 11.561 15.219 11.561 14.829 11.171 L 14.586 10.928 C 14.196 10.538 14.196 9.904 14.586 9.514 L 16 8.1 C 16.39 7.71 17.024 7.71 17.414 8.1 Z M 5.414 9.514 C 5.804 9.904 5.804 10.538 5.414 10.928 L 5.171 11.171 C 4.781 11.561 4.147 11.561 3.757 11.171 L 2.343 9.757 C 1.953 9.367 1.953 8.733 2.343 8.343 L 3.757 6.929 C 4.147 6.539 4.781 6.539 5.171 6.929 Z M 10 1 C 10.552 1 11 1.448 11 2 L 11 4 C 11 4.552 10.552 5 10 5 C 9.448 5 9 4.552 9 4 L 9 2 C 9 1.448 9.448 1 10 1 Z M 10 15 C 10.552 15 11 15.448 11 16 L 11 18 C 11 18.552 10.552 19 10 19 C 9.448 19 9 18.552 9 18 L 9 16 C 9 15.448 9.448 15 10 15 Z" fill="currentColor"/>
</svg>