<svg xmlns="http://www.w3.org/2000/svg" viewBox="0 0 20 20">
  <path d="M 15 1 C 16.657 1 18 2.343 18 4 C 18 5.657 16.657 7 15 7 C 14.307 7 13.672 6.776 13.146 6.414 L 7.293 9.293 C 7.683 9.903 7.683 10.597 7.293 11.207 L 13.146 14.586 C 13.672 14.224 14.307 14 15 14 C 16.657 14 18 15.343 18 17 C 18 18.657 16.657 20 15 20 C 13.343 20 12 18.657 12 17 C 12 16.693 12.074 16.402 12.207 16.134 L 6.354 13.293 C 5.828 13.655 5.193 13.879 4.5 13.879 C 2.843 13.879 1.5 12.536 1.5 10.879 C 1.5 9.222 2.843 7.879 4.5 7.879 C 5.193 7.879 5.828 8.103 6.354 8.465 Z" fill="currentColor"/>
</svg>