<svg xmlns="http://www.w3.org/2000/svg" viewBox="0 0 20 20">
  <path d="M 15.5 15 C 16.328 15 17 15.672 17 16.5 C 17 17.328 16.328 18 15.5 18 C 14.672 18 14 17.328 14 16.5 C 14 15.672 14.672 15 15.5 15 Z" fill="currentColor" opacity="0.5"/>
  <path d="M 6.5 15 C 7.328 15 8 15.672 8 16.5 C 8 17.328 7.328 18 6.5 18 C 5.672 18 5 17.328 5 16.5 C 5 15.672 5.672 15 6.5 15 Z" fill="currentColor" opacity="0.5"/>
  <path d="M 3.807 2 C 4.224 2 4.597 2.259 4.743 2.649 L 6 6 L 17.557 6 C 18.255 6 18.738 6.697 18.493 7.351 L 16.487 12.702 C 16.194 13.483 15.448 14 14.614 14 L 7.919 14 C 7.069 14 6.312 13.463 6.031 12.661 L 3 4 L 2 4 C 1.448 4 1 3.552 1 3 L 1 3 C 1 2.448 1.448 2 2 2 Z" fill="currentColor"/>
</svg>