<svg xmlns="http://www.w3.org/2000/svg" viewBox="0 0 20 20">
  <path d="M 9.552 0.863 C 9.735 0.492 10.265 0.492 10.448 0.863 L 12.823 5.674 C 12.895 5.822 13.036 5.924 13.199 5.948 L 18.508 6.719 C 18.918 6.779 19.082 7.283 18.785 7.572 L 14.944 11.317 C 14.826 11.431 14.772 11.597 14.8 11.759 L 15.707 17.047 C 15.777 17.455 15.348 17.766 14.981 17.574 L 10.233 15.077 C 10.087 15.001 9.913 15.001 9.767 15.077 L 5.019 17.574 C 4.652 17.766 4.223 17.455 4.293 17.047 L 5.2 11.759 C 5.228 11.597 5.174 11.431 5.056 11.317 L 1.215 7.572 C 0.918 7.283 1.082 6.779 1.492 6.719 L 6.801 5.948 C 6.964 5.924 7.105 5.822 7.177 5.674 Z" fill="currentColor"/>
</svg>