<svg width="48" height="48" viewBox="0 0 48 48" fill="none" xmlns="http://www.w3.org/2000/svg">
<path d="M40.8665 18.4617H31.1151C30.2437 18.4617 29.5385 17.6439 29.5385 16.6359V16.5971C29.5385 15.5891 30.2437 14.7713 31.1151 14.7713H40.8665C41.7452 14.7713 42.4615 15.602 42.4615 16.6174C42.4615 17.6328 41.7452 18.4636 40.8665 18.4636V18.4617ZM40.8665 25.8463H31.1151C30.2437 25.8463 29.5385 25.0285 29.5385 24.0205V23.9799C29.5385 22.9719 30.2437 22.154 31.1151 22.154H40.8665C41.7452 22.154 42.4615 22.9848 42.4615 24.0002C42.4615 25.0156 41.7452 25.8463 40.8665 25.8463ZM40.9071 33.231H34.7649C33.9157 33.231 33.2308 32.4131 33.2308 31.4051V31.3645C33.2308 30.3565 33.9175 29.5386 34.7649 29.5386H40.9071C41.7619 29.5386 42.4615 30.3694 42.4615 31.3848C42.4615 32.4002 41.7619 33.231 40.9071 33.231ZM18.4615 24.0002C16.503 24.0002 14.6247 23.2222 13.2398 21.8373C11.8549 20.4524 11.0769 18.5741 11.0769 16.6156C11.0769 14.6571 11.8549 12.7787 13.2398 11.3939C14.6247 10.009 16.503 9.23096 18.4615 9.23096C20.4201 9.23096 22.2984 10.009 23.6833 11.3939C25.0681 12.7787 25.8462 14.6571 25.8462 16.6156C25.8462 18.5741 25.0681 20.4524 23.6833 21.8373C22.2984 23.2222 20.4201 24.0002 18.4615 24.0002ZM7.32923 38.9042C6.25292 38.9042 5.39446 37.9479 5.55692 36.8863C6.03707 33.8092 7.60168 31.0052 9.9682 28.9806C12.3347 26.956 15.3472 25.8443 18.4615 25.8463C21.5756 25.8448 24.5876 26.9567 26.9537 28.9812C29.3199 31.0057 30.8842 33.8095 31.3643 36.8863C31.5305 37.9479 30.6702 38.9042 29.5957 38.9042H7.32923Z" fill="black"/>
</svg>
