<svg xmlns="http://www.w3.org/2000/svg" viewBox="0 0 20 20">
  <path d="M 7.833 5.794 C 7.93 5.331 8.339 5 8.811 5 L 11.189 5 C 11.661 5 12.07 5.331 12.167 5.794 L 13.817 13.63 C 13.933 14.184 13.81 14.761 13.477 15.219 L 10.809 18.888 C 10.409 19.437 9.591 19.437 9.191 18.888 L 6.523 15.219 C 6.19 14.761 6.067 14.184 6.183 13.63 Z" fill="currentColor"/>
  <path d="M 7.749 1.629 C 7.9 1.249 8.268 1 8.677 1 L 11.323 1 C 11.732 1 12.1 1.249 12.251 1.629 L 12.5 2.25 C 12.739 2.849 12.299 3.5 11.654 3.5 L 8.346 3.5 C 7.701 3.5 7.261 2.849 7.5 2.25 Z" fill="currentColor"/>
  <path d="M 4.008 12.164 C 4.316 12.061 4.556 11.815 4.649 11.503 L 6.021 6.931 C 6.212 6.292 5.324 5.917 5 6.5 L 2.714 10.615 C 2.578 10.86 2.55 11.151 2.639 11.417 L 2.842 12.026 C 2.929 12.288 3.212 12.429 3.474 12.342 Z" fill="currentColor" opacity="0.5"/>
</svg>