<svg xmlns="http://www.w3.org/2000/svg" viewBox="0 0 20 20">
  <path d="M 10 19 C 9.448 19 9 18.552 9 18 L 9 8.414 L 6.707 10.707 C 6.317 11.097 5.683 11.097 5.293 10.707 C 4.903 10.317 4.903 9.683 5.293 9.293 L 9.293 5.293 C 9.683 4.903 10.317 4.903 10.707 5.293 L 14.707 9.293 C 15.097 9.683 15.097 10.317 14.707 10.707 C 14.317 11.097 13.683 11.097 13.293 10.707 L 11 8.414 L 11 18 C 11 18.552 10.552 19 10 19 Z M 3 1 C 2.448 1 2 1.448 2 2 L 2 4 C 2 4.552 2.448 5 3 5 L 17 5 C 17.552 5 18 4.552 18 4 L 18 2 C 18 1.448 17.552 1 17 1 L 3 1 Z" fill="currentColor"/>
</svg>